M48
; DRILL file KiCad 10.0.0 date 2026-04-21T05:52:08
; FORMAT={-:-/ absolute / metric / decimal}
; #@! TF.CreationDate,2026-04-21T05:52:08+05:30
; #@! TF.GenerationSoftware,Kicad,Pcbnew,10.0.0
; #@! TF.FileFunction,Plated,1,2,PTH
FMAT,2
METRIC
; #@! TA.AperFunction,Plated,PTH,ViaDrill
T1C0.400
; #@! TA.AperFunction,Plated,PTH,ComponentDrill
T2C0.700
; #@! TA.AperFunction,Plated,PTH,ComponentDrill
T3C0.800
; #@! TA.AperFunction,Plated,PTH,ComponentDrill
T4C0.900
; #@! TA.AperFunction,Plated,PTH,ComponentDrill
T5C1.000
; #@! TA.AperFunction,Plated,PTH,ComponentDrill
T6C1.100
; #@! TA.AperFunction,Plated,PTH,ComponentDrill
T7C1.300
%
G90
G05
T1
X106.53Y-109.59
X106.62Y-117.52
X114.3Y-112.47
T2
X115.38Y-94.18
X115.49Y-108.8
X115.5Y-113.614
X123.0Y-94.18
X123.11Y-108.8
X123.12Y-113.614
T3
X100.49Y-83.53
X102.99Y-83.53
X105.8Y-83.6
X108.3Y-83.6
X111.34Y-111.16
X111.34Y-113.66
T4
X115.4Y-88.2
X117.9Y-88.2
X119.18Y-101.55
X120.4Y-88.2
X121.72Y-101.55
T5
X101.26Y-77.4
X101.32Y-122.3
X103.8Y-77.4
X103.86Y-122.3
X106.34Y-77.4
X106.4Y-122.3
X126.9Y-121.99
X126.9Y-124.53
X127.0Y-76.2
X127.0Y-78.74
T6
X101.52Y-113.29
X102.98Y-88.44
X104.06Y-113.29
X105.52Y-88.44
X106.6Y-113.29
X108.06Y-88.44
T7
X114.46Y-121.85
X114.566Y-78.654
X119.46Y-121.85
X119.566Y-78.654
T5
G00X107.89Y-100.09
M15
G01X107.89Y-102.09
M16
G05
G00X109.89Y-105.79
M15
G01X111.89Y-105.79
M16
G05
G00X113.89Y-100.09
M15
G01X113.89Y-102.09
M16
G05
M30
