%TF.GenerationSoftware,KiCad,Pcbnew,10.0.0*%
%TF.CreationDate,2026-04-21T05:52:01+05:30*%
%TF.ProjectId,Bread Board Power Supply,42726561-6420-4426-9f61-726420506f77,1*%
%TF.SameCoordinates,Original*%
%TF.FileFunction,Legend,Top*%
%TF.FilePolarity,Positive*%
%FSLAX46Y46*%
G04 Gerber Fmt 4.6, Leading zero omitted, Abs format (unit mm)*
G04 Created by KiCad (PCBNEW 10.0.0) date 2026-04-21 05:52:01*
%MOMM*%
%LPD*%
G01*
G04 APERTURE LIST*
%ADD10C,0.080000*%
%ADD11C,0.150000*%
%ADD12C,0.120000*%
%ADD13C,0.100000*%
G04 APERTURE END LIST*
D10*
X113342154Y-116226030D02*
X113265964Y-116187935D01*
X113265964Y-116187935D02*
X113151678Y-116187935D01*
X113151678Y-116187935D02*
X113037392Y-116226030D01*
X113037392Y-116226030D02*
X112961202Y-116302220D01*
X112961202Y-116302220D02*
X112923107Y-116378411D01*
X112923107Y-116378411D02*
X112885011Y-116530792D01*
X112885011Y-116530792D02*
X112885011Y-116645078D01*
X112885011Y-116645078D02*
X112923107Y-116797459D01*
X112923107Y-116797459D02*
X112961202Y-116873649D01*
X112961202Y-116873649D02*
X113037392Y-116949840D01*
X113037392Y-116949840D02*
X113151678Y-116987935D01*
X113151678Y-116987935D02*
X113227869Y-116987935D01*
X113227869Y-116987935D02*
X113342154Y-116949840D01*
X113342154Y-116949840D02*
X113380250Y-116911744D01*
X113380250Y-116911744D02*
X113380250Y-116645078D01*
X113380250Y-116645078D02*
X113227869Y-116645078D01*
X113723107Y-116987935D02*
X113723107Y-116187935D01*
X113723107Y-116187935D02*
X114180250Y-116987935D01*
X114180250Y-116987935D02*
X114180250Y-116187935D01*
X114561202Y-116987935D02*
X114561202Y-116187935D01*
X114561202Y-116187935D02*
X114751678Y-116187935D01*
X114751678Y-116187935D02*
X114865964Y-116226030D01*
X114865964Y-116226030D02*
X114942154Y-116302220D01*
X114942154Y-116302220D02*
X114980249Y-116378411D01*
X114980249Y-116378411D02*
X115018345Y-116530792D01*
X115018345Y-116530792D02*
X115018345Y-116645078D01*
X115018345Y-116645078D02*
X114980249Y-116797459D01*
X114980249Y-116797459D02*
X114942154Y-116873649D01*
X114942154Y-116873649D02*
X114865964Y-116949840D01*
X114865964Y-116949840D02*
X114751678Y-116987935D01*
X114751678Y-116987935D02*
X114561202Y-116987935D01*
X121572154Y-83636030D02*
X121495964Y-83597935D01*
X121495964Y-83597935D02*
X121381678Y-83597935D01*
X121381678Y-83597935D02*
X121267392Y-83636030D01*
X121267392Y-83636030D02*
X121191202Y-83712220D01*
X121191202Y-83712220D02*
X121153107Y-83788411D01*
X121153107Y-83788411D02*
X121115011Y-83940792D01*
X121115011Y-83940792D02*
X121115011Y-84055078D01*
X121115011Y-84055078D02*
X121153107Y-84207459D01*
X121153107Y-84207459D02*
X121191202Y-84283649D01*
X121191202Y-84283649D02*
X121267392Y-84359840D01*
X121267392Y-84359840D02*
X121381678Y-84397935D01*
X121381678Y-84397935D02*
X121457869Y-84397935D01*
X121457869Y-84397935D02*
X121572154Y-84359840D01*
X121572154Y-84359840D02*
X121610250Y-84321744D01*
X121610250Y-84321744D02*
X121610250Y-84055078D01*
X121610250Y-84055078D02*
X121457869Y-84055078D01*
X121953107Y-84397935D02*
X121953107Y-83597935D01*
X121953107Y-83597935D02*
X122410250Y-84397935D01*
X122410250Y-84397935D02*
X122410250Y-83597935D01*
X122791202Y-84397935D02*
X122791202Y-83597935D01*
X122791202Y-83597935D02*
X122981678Y-83597935D01*
X122981678Y-83597935D02*
X123095964Y-83636030D01*
X123095964Y-83636030D02*
X123172154Y-83712220D01*
X123172154Y-83712220D02*
X123210249Y-83788411D01*
X123210249Y-83788411D02*
X123248345Y-83940792D01*
X123248345Y-83940792D02*
X123248345Y-84055078D01*
X123248345Y-84055078D02*
X123210249Y-84207459D01*
X123210249Y-84207459D02*
X123172154Y-84283649D01*
X123172154Y-84283649D02*
X123095964Y-84359840D01*
X123095964Y-84359840D02*
X122981678Y-84397935D01*
X122981678Y-84397935D02*
X122791202Y-84397935D01*
X123896030Y-122167845D02*
X123857935Y-122244035D01*
X123857935Y-122244035D02*
X123857935Y-122358321D01*
X123857935Y-122358321D02*
X123896030Y-122472607D01*
X123896030Y-122472607D02*
X123972220Y-122548797D01*
X123972220Y-122548797D02*
X124048411Y-122586892D01*
X124048411Y-122586892D02*
X124200792Y-122624988D01*
X124200792Y-122624988D02*
X124315078Y-122624988D01*
X124315078Y-122624988D02*
X124467459Y-122586892D01*
X124467459Y-122586892D02*
X124543649Y-122548797D01*
X124543649Y-122548797D02*
X124619840Y-122472607D01*
X124619840Y-122472607D02*
X124657935Y-122358321D01*
X124657935Y-122358321D02*
X124657935Y-122282130D01*
X124657935Y-122282130D02*
X124619840Y-122167845D01*
X124619840Y-122167845D02*
X124581744Y-122129749D01*
X124581744Y-122129749D02*
X124315078Y-122129749D01*
X124315078Y-122129749D02*
X124315078Y-122282130D01*
X124657935Y-121786892D02*
X123857935Y-121786892D01*
X123857935Y-121786892D02*
X124657935Y-121329749D01*
X124657935Y-121329749D02*
X123857935Y-121329749D01*
X124657935Y-120948797D02*
X123857935Y-120948797D01*
X123857935Y-120948797D02*
X123857935Y-120758321D01*
X123857935Y-120758321D02*
X123896030Y-120644035D01*
X123896030Y-120644035D02*
X123972220Y-120567845D01*
X123972220Y-120567845D02*
X124048411Y-120529750D01*
X124048411Y-120529750D02*
X124200792Y-120491654D01*
X124200792Y-120491654D02*
X124315078Y-120491654D01*
X124315078Y-120491654D02*
X124467459Y-120529750D01*
X124467459Y-120529750D02*
X124543649Y-120567845D01*
X124543649Y-120567845D02*
X124619840Y-120644035D01*
X124619840Y-120644035D02*
X124657935Y-120758321D01*
X124657935Y-120758321D02*
X124657935Y-120948797D01*
X123906030Y-76047845D02*
X123867935Y-76124035D01*
X123867935Y-76124035D02*
X123867935Y-76238321D01*
X123867935Y-76238321D02*
X123906030Y-76352607D01*
X123906030Y-76352607D02*
X123982220Y-76428797D01*
X123982220Y-76428797D02*
X124058411Y-76466892D01*
X124058411Y-76466892D02*
X124210792Y-76504988D01*
X124210792Y-76504988D02*
X124325078Y-76504988D01*
X124325078Y-76504988D02*
X124477459Y-76466892D01*
X124477459Y-76466892D02*
X124553649Y-76428797D01*
X124553649Y-76428797D02*
X124629840Y-76352607D01*
X124629840Y-76352607D02*
X124667935Y-76238321D01*
X124667935Y-76238321D02*
X124667935Y-76162130D01*
X124667935Y-76162130D02*
X124629840Y-76047845D01*
X124629840Y-76047845D02*
X124591744Y-76009749D01*
X124591744Y-76009749D02*
X124325078Y-76009749D01*
X124325078Y-76009749D02*
X124325078Y-76162130D01*
X124667935Y-75666892D02*
X123867935Y-75666892D01*
X123867935Y-75666892D02*
X124667935Y-75209749D01*
X124667935Y-75209749D02*
X123867935Y-75209749D01*
X124667935Y-74828797D02*
X123867935Y-74828797D01*
X123867935Y-74828797D02*
X123867935Y-74638321D01*
X123867935Y-74638321D02*
X123906030Y-74524035D01*
X123906030Y-74524035D02*
X123982220Y-74447845D01*
X123982220Y-74447845D02*
X124058411Y-74409750D01*
X124058411Y-74409750D02*
X124210792Y-74371654D01*
X124210792Y-74371654D02*
X124325078Y-74371654D01*
X124325078Y-74371654D02*
X124477459Y-74409750D01*
X124477459Y-74409750D02*
X124553649Y-74447845D01*
X124553649Y-74447845D02*
X124629840Y-74524035D01*
X124629840Y-74524035D02*
X124667935Y-74638321D01*
X124667935Y-74638321D02*
X124667935Y-74828797D01*
X99546916Y-79527935D02*
X100042154Y-79527935D01*
X100042154Y-79527935D02*
X99775488Y-79832697D01*
X99775488Y-79832697D02*
X99889773Y-79832697D01*
X99889773Y-79832697D02*
X99965964Y-79870792D01*
X99965964Y-79870792D02*
X100004059Y-79908887D01*
X100004059Y-79908887D02*
X100042154Y-79985078D01*
X100042154Y-79985078D02*
X100042154Y-80175554D01*
X100042154Y-80175554D02*
X100004059Y-80251744D01*
X100004059Y-80251744D02*
X99965964Y-80289840D01*
X99965964Y-80289840D02*
X99889773Y-80327935D01*
X99889773Y-80327935D02*
X99661202Y-80327935D01*
X99661202Y-80327935D02*
X99585011Y-80289840D01*
X99585011Y-80289840D02*
X99546916Y-80251744D01*
X100385012Y-80251744D02*
X100423107Y-80289840D01*
X100423107Y-80289840D02*
X100385012Y-80327935D01*
X100385012Y-80327935D02*
X100346916Y-80289840D01*
X100346916Y-80289840D02*
X100385012Y-80251744D01*
X100385012Y-80251744D02*
X100385012Y-80327935D01*
X100689773Y-79527935D02*
X101185011Y-79527935D01*
X101185011Y-79527935D02*
X100918345Y-79832697D01*
X100918345Y-79832697D02*
X101032630Y-79832697D01*
X101032630Y-79832697D02*
X101108821Y-79870792D01*
X101108821Y-79870792D02*
X101146916Y-79908887D01*
X101146916Y-79908887D02*
X101185011Y-79985078D01*
X101185011Y-79985078D02*
X101185011Y-80175554D01*
X101185011Y-80175554D02*
X101146916Y-80251744D01*
X101146916Y-80251744D02*
X101108821Y-80289840D01*
X101108821Y-80289840D02*
X101032630Y-80327935D01*
X101032630Y-80327935D02*
X100804059Y-80327935D01*
X100804059Y-80327935D02*
X100727868Y-80289840D01*
X100727868Y-80289840D02*
X100689773Y-80251744D01*
X101451678Y-79794601D02*
X101642154Y-80327935D01*
X101642154Y-80327935D02*
X101832631Y-79794601D01*
X99966916Y-124497935D02*
X100462154Y-124497935D01*
X100462154Y-124497935D02*
X100195488Y-124802697D01*
X100195488Y-124802697D02*
X100309773Y-124802697D01*
X100309773Y-124802697D02*
X100385964Y-124840792D01*
X100385964Y-124840792D02*
X100424059Y-124878887D01*
X100424059Y-124878887D02*
X100462154Y-124955078D01*
X100462154Y-124955078D02*
X100462154Y-125145554D01*
X100462154Y-125145554D02*
X100424059Y-125221744D01*
X100424059Y-125221744D02*
X100385964Y-125259840D01*
X100385964Y-125259840D02*
X100309773Y-125297935D01*
X100309773Y-125297935D02*
X100081202Y-125297935D01*
X100081202Y-125297935D02*
X100005011Y-125259840D01*
X100005011Y-125259840D02*
X99966916Y-125221744D01*
X100805012Y-125221744D02*
X100843107Y-125259840D01*
X100843107Y-125259840D02*
X100805012Y-125297935D01*
X100805012Y-125297935D02*
X100766916Y-125259840D01*
X100766916Y-125259840D02*
X100805012Y-125221744D01*
X100805012Y-125221744D02*
X100805012Y-125297935D01*
X101109773Y-124497935D02*
X101605011Y-124497935D01*
X101605011Y-124497935D02*
X101338345Y-124802697D01*
X101338345Y-124802697D02*
X101452630Y-124802697D01*
X101452630Y-124802697D02*
X101528821Y-124840792D01*
X101528821Y-124840792D02*
X101566916Y-124878887D01*
X101566916Y-124878887D02*
X101605011Y-124955078D01*
X101605011Y-124955078D02*
X101605011Y-125145554D01*
X101605011Y-125145554D02*
X101566916Y-125221744D01*
X101566916Y-125221744D02*
X101528821Y-125259840D01*
X101528821Y-125259840D02*
X101452630Y-125297935D01*
X101452630Y-125297935D02*
X101224059Y-125297935D01*
X101224059Y-125297935D02*
X101147868Y-125259840D01*
X101147868Y-125259840D02*
X101109773Y-125221744D01*
X101871678Y-124764601D02*
X102062154Y-125297935D01*
X102062154Y-125297935D02*
X102252631Y-124764601D01*
X106184059Y-79457935D02*
X105803107Y-79457935D01*
X105803107Y-79457935D02*
X105765011Y-79838887D01*
X105765011Y-79838887D02*
X105803107Y-79800792D01*
X105803107Y-79800792D02*
X105879297Y-79762697D01*
X105879297Y-79762697D02*
X106069773Y-79762697D01*
X106069773Y-79762697D02*
X106145964Y-79800792D01*
X106145964Y-79800792D02*
X106184059Y-79838887D01*
X106184059Y-79838887D02*
X106222154Y-79915078D01*
X106222154Y-79915078D02*
X106222154Y-80105554D01*
X106222154Y-80105554D02*
X106184059Y-80181744D01*
X106184059Y-80181744D02*
X106145964Y-80219840D01*
X106145964Y-80219840D02*
X106069773Y-80257935D01*
X106069773Y-80257935D02*
X105879297Y-80257935D01*
X105879297Y-80257935D02*
X105803107Y-80219840D01*
X105803107Y-80219840D02*
X105765011Y-80181744D01*
X106488821Y-79724601D02*
X106679297Y-80257935D01*
X106679297Y-80257935D02*
X106869774Y-79724601D01*
X106264059Y-124387935D02*
X105883107Y-124387935D01*
X105883107Y-124387935D02*
X105845011Y-124768887D01*
X105845011Y-124768887D02*
X105883107Y-124730792D01*
X105883107Y-124730792D02*
X105959297Y-124692697D01*
X105959297Y-124692697D02*
X106149773Y-124692697D01*
X106149773Y-124692697D02*
X106225964Y-124730792D01*
X106225964Y-124730792D02*
X106264059Y-124768887D01*
X106264059Y-124768887D02*
X106302154Y-124845078D01*
X106302154Y-124845078D02*
X106302154Y-125035554D01*
X106302154Y-125035554D02*
X106264059Y-125111744D01*
X106264059Y-125111744D02*
X106225964Y-125149840D01*
X106225964Y-125149840D02*
X106149773Y-125187935D01*
X106149773Y-125187935D02*
X105959297Y-125187935D01*
X105959297Y-125187935D02*
X105883107Y-125149840D01*
X105883107Y-125149840D02*
X105845011Y-125111744D01*
X106568821Y-124654601D02*
X106759297Y-125187935D01*
X106759297Y-125187935D02*
X106949774Y-124654601D01*
X114365488Y-90817935D02*
X114517869Y-90817935D01*
X114517869Y-90817935D02*
X114594059Y-90856030D01*
X114594059Y-90856030D02*
X114670250Y-90932220D01*
X114670250Y-90932220D02*
X114708345Y-91084601D01*
X114708345Y-91084601D02*
X114708345Y-91351268D01*
X114708345Y-91351268D02*
X114670250Y-91503649D01*
X114670250Y-91503649D02*
X114594059Y-91579840D01*
X114594059Y-91579840D02*
X114517869Y-91617935D01*
X114517869Y-91617935D02*
X114365488Y-91617935D01*
X114365488Y-91617935D02*
X114289297Y-91579840D01*
X114289297Y-91579840D02*
X114213107Y-91503649D01*
X114213107Y-91503649D02*
X114175011Y-91351268D01*
X114175011Y-91351268D02*
X114175011Y-91084601D01*
X114175011Y-91084601D02*
X114213107Y-90932220D01*
X114213107Y-90932220D02*
X114289297Y-90856030D01*
X114289297Y-90856030D02*
X114365488Y-90817935D01*
X115317868Y-91198887D02*
X115051202Y-91198887D01*
X115051202Y-91617935D02*
X115051202Y-90817935D01*
X115051202Y-90817935D02*
X115432154Y-90817935D01*
X116003582Y-91198887D02*
X115736916Y-91198887D01*
X115736916Y-91617935D02*
X115736916Y-90817935D01*
X115736916Y-90817935D02*
X116117868Y-90817935D01*
X117463107Y-97833173D02*
X118072631Y-97833173D01*
X120635488Y-90847935D02*
X120787869Y-90847935D01*
X120787869Y-90847935D02*
X120864059Y-90886030D01*
X120864059Y-90886030D02*
X120940250Y-90962220D01*
X120940250Y-90962220D02*
X120978345Y-91114601D01*
X120978345Y-91114601D02*
X120978345Y-91381268D01*
X120978345Y-91381268D02*
X120940250Y-91533649D01*
X120940250Y-91533649D02*
X120864059Y-91609840D01*
X120864059Y-91609840D02*
X120787869Y-91647935D01*
X120787869Y-91647935D02*
X120635488Y-91647935D01*
X120635488Y-91647935D02*
X120559297Y-91609840D01*
X120559297Y-91609840D02*
X120483107Y-91533649D01*
X120483107Y-91533649D02*
X120445011Y-91381268D01*
X120445011Y-91381268D02*
X120445011Y-91114601D01*
X120445011Y-91114601D02*
X120483107Y-90962220D01*
X120483107Y-90962220D02*
X120559297Y-90886030D01*
X120559297Y-90886030D02*
X120635488Y-90847935D01*
X121321202Y-91647935D02*
X121321202Y-90847935D01*
X121321202Y-90847935D02*
X121778345Y-91647935D01*
X121778345Y-91647935D02*
X121778345Y-90847935D01*
X122543107Y-97733173D02*
X123152631Y-97733173D01*
X122847869Y-98037935D02*
X122847869Y-97428411D01*
D11*
X123533333Y-125042295D02*
X123533333Y-125613723D01*
X123533333Y-125613723D02*
X123495238Y-125728009D01*
X123495238Y-125728009D02*
X123419047Y-125804200D01*
X123419047Y-125804200D02*
X123304762Y-125842295D01*
X123304762Y-125842295D02*
X123228571Y-125842295D01*
X123876190Y-125118485D02*
X123914286Y-125080390D01*
X123914286Y-125080390D02*
X123990476Y-125042295D01*
X123990476Y-125042295D02*
X124180952Y-125042295D01*
X124180952Y-125042295D02*
X124257143Y-125080390D01*
X124257143Y-125080390D02*
X124295238Y-125118485D01*
X124295238Y-125118485D02*
X124333333Y-125194676D01*
X124333333Y-125194676D02*
X124333333Y-125270866D01*
X124333333Y-125270866D02*
X124295238Y-125385152D01*
X124295238Y-125385152D02*
X123838095Y-125842295D01*
X123838095Y-125842295D02*
X124333333Y-125842295D01*
X123943333Y-78352295D02*
X123943333Y-78923723D01*
X123943333Y-78923723D02*
X123905238Y-79038009D01*
X123905238Y-79038009D02*
X123829047Y-79114200D01*
X123829047Y-79114200D02*
X123714762Y-79152295D01*
X123714762Y-79152295D02*
X123638571Y-79152295D01*
X124743333Y-79152295D02*
X124286190Y-79152295D01*
X124514762Y-79152295D02*
X124514762Y-78352295D01*
X124514762Y-78352295D02*
X124438571Y-78466580D01*
X124438571Y-78466580D02*
X124362381Y-78542771D01*
X124362381Y-78542771D02*
X124286190Y-78580866D01*
X59898904Y-229397532D02*
X59937000Y-229435628D01*
X59937000Y-229435628D02*
X59975095Y-229549913D01*
X59975095Y-229549913D02*
X59975095Y-229626104D01*
X59975095Y-229626104D02*
X59937000Y-229740390D01*
X59937000Y-229740390D02*
X59860809Y-229816580D01*
X59860809Y-229816580D02*
X59784619Y-229854675D01*
X59784619Y-229854675D02*
X59632238Y-229892771D01*
X59632238Y-229892771D02*
X59517952Y-229892771D01*
X59517952Y-229892771D02*
X59365571Y-229854675D01*
X59365571Y-229854675D02*
X59289380Y-229816580D01*
X59289380Y-229816580D02*
X59213190Y-229740390D01*
X59213190Y-229740390D02*
X59175095Y-229626104D01*
X59175095Y-229626104D02*
X59175095Y-229549913D01*
X59175095Y-229549913D02*
X59213190Y-229435628D01*
X59213190Y-229435628D02*
X59251285Y-229397532D01*
X59175095Y-229130866D02*
X59175095Y-228635628D01*
X59175095Y-228635628D02*
X59479857Y-228902294D01*
X59479857Y-228902294D02*
X59479857Y-228788009D01*
X59479857Y-228788009D02*
X59517952Y-228711818D01*
X59517952Y-228711818D02*
X59556047Y-228673723D01*
X59556047Y-228673723D02*
X59632238Y-228635628D01*
X59632238Y-228635628D02*
X59822714Y-228635628D01*
X59822714Y-228635628D02*
X59898904Y-228673723D01*
X59898904Y-228673723D02*
X59937000Y-228711818D01*
X59937000Y-228711818D02*
X59975095Y-228788009D01*
X59975095Y-228788009D02*
X59975095Y-229016580D01*
X59975095Y-229016580D02*
X59937000Y-229092771D01*
X59937000Y-229092771D02*
X59898904Y-229130866D01*
X110843809Y-109442295D02*
X110386666Y-109442295D01*
X110615238Y-109442295D02*
X110615238Y-108642295D01*
X110615238Y-108642295D02*
X110539047Y-108756580D01*
X110539047Y-108756580D02*
X110462857Y-108832771D01*
X110462857Y-108832771D02*
X110386666Y-108870866D01*
X111529524Y-108908961D02*
X111529524Y-109442295D01*
X111186667Y-108908961D02*
X111186667Y-109328009D01*
X111186667Y-109328009D02*
X111224762Y-109404200D01*
X111224762Y-109404200D02*
X111300952Y-109442295D01*
X111300952Y-109442295D02*
X111415238Y-109442295D01*
X111415238Y-109442295D02*
X111491429Y-109404200D01*
X111491429Y-109404200D02*
X111529524Y-109366104D01*
X112177143Y-109023247D02*
X111910477Y-109023247D01*
X111910477Y-109442295D02*
X111910477Y-108642295D01*
X111910477Y-108642295D02*
X112291429Y-108642295D01*
X111376667Y-116066104D02*
X111338571Y-116104200D01*
X111338571Y-116104200D02*
X111224286Y-116142295D01*
X111224286Y-116142295D02*
X111148095Y-116142295D01*
X111148095Y-116142295D02*
X111033809Y-116104200D01*
X111033809Y-116104200D02*
X110957619Y-116028009D01*
X110957619Y-116028009D02*
X110919524Y-115951819D01*
X110919524Y-115951819D02*
X110881428Y-115799438D01*
X110881428Y-115799438D02*
X110881428Y-115685152D01*
X110881428Y-115685152D02*
X110919524Y-115532771D01*
X110919524Y-115532771D02*
X110957619Y-115456580D01*
X110957619Y-115456580D02*
X111033809Y-115380390D01*
X111033809Y-115380390D02*
X111148095Y-115342295D01*
X111148095Y-115342295D02*
X111224286Y-115342295D01*
X111224286Y-115342295D02*
X111338571Y-115380390D01*
X111338571Y-115380390D02*
X111376667Y-115418485D01*
X111643333Y-115342295D02*
X112138571Y-115342295D01*
X112138571Y-115342295D02*
X111871905Y-115647057D01*
X111871905Y-115647057D02*
X111986190Y-115647057D01*
X111986190Y-115647057D02*
X112062381Y-115685152D01*
X112062381Y-115685152D02*
X112100476Y-115723247D01*
X112100476Y-115723247D02*
X112138571Y-115799438D01*
X112138571Y-115799438D02*
X112138571Y-115989914D01*
X112138571Y-115989914D02*
X112100476Y-116066104D01*
X112100476Y-116066104D02*
X112062381Y-116104200D01*
X112062381Y-116104200D02*
X111986190Y-116142295D01*
X111986190Y-116142295D02*
X111757619Y-116142295D01*
X111757619Y-116142295D02*
X111681428Y-116104200D01*
X111681428Y-116104200D02*
X111643333Y-116066104D01*
X98442295Y-77666666D02*
X99013723Y-77666666D01*
X99013723Y-77666666D02*
X99128009Y-77704761D01*
X99128009Y-77704761D02*
X99204200Y-77780952D01*
X99204200Y-77780952D02*
X99242295Y-77895237D01*
X99242295Y-77895237D02*
X99242295Y-77971428D01*
X98442295Y-77361904D02*
X98442295Y-76866666D01*
X98442295Y-76866666D02*
X98747057Y-77133332D01*
X98747057Y-77133332D02*
X98747057Y-77019047D01*
X98747057Y-77019047D02*
X98785152Y-76942856D01*
X98785152Y-76942856D02*
X98823247Y-76904761D01*
X98823247Y-76904761D02*
X98899438Y-76866666D01*
X98899438Y-76866666D02*
X99089914Y-76866666D01*
X99089914Y-76866666D02*
X99166104Y-76904761D01*
X99166104Y-76904761D02*
X99204200Y-76942856D01*
X99204200Y-76942856D02*
X99242295Y-77019047D01*
X99242295Y-77019047D02*
X99242295Y-77247618D01*
X99242295Y-77247618D02*
X99204200Y-77323809D01*
X99204200Y-77323809D02*
X99166104Y-77361904D01*
X119176667Y-112056495D02*
X118910000Y-111675542D01*
X118719524Y-112056495D02*
X118719524Y-111256495D01*
X118719524Y-111256495D02*
X119024286Y-111256495D01*
X119024286Y-111256495D02*
X119100476Y-111294590D01*
X119100476Y-111294590D02*
X119138571Y-111332685D01*
X119138571Y-111332685D02*
X119176667Y-111408876D01*
X119176667Y-111408876D02*
X119176667Y-111523161D01*
X119176667Y-111523161D02*
X119138571Y-111599352D01*
X119138571Y-111599352D02*
X119100476Y-111637447D01*
X119100476Y-111637447D02*
X119024286Y-111675542D01*
X119024286Y-111675542D02*
X118719524Y-111675542D01*
X119443333Y-111256495D02*
X119938571Y-111256495D01*
X119938571Y-111256495D02*
X119671905Y-111561257D01*
X119671905Y-111561257D02*
X119786190Y-111561257D01*
X119786190Y-111561257D02*
X119862381Y-111599352D01*
X119862381Y-111599352D02*
X119900476Y-111637447D01*
X119900476Y-111637447D02*
X119938571Y-111713638D01*
X119938571Y-111713638D02*
X119938571Y-111904114D01*
X119938571Y-111904114D02*
X119900476Y-111980304D01*
X119900476Y-111980304D02*
X119862381Y-112018400D01*
X119862381Y-112018400D02*
X119786190Y-112056495D01*
X119786190Y-112056495D02*
X119557619Y-112056495D01*
X119557619Y-112056495D02*
X119481428Y-112018400D01*
X119481428Y-112018400D02*
X119443333Y-111980304D01*
X118738571Y-113176495D02*
X118357619Y-113176495D01*
X118357619Y-113176495D02*
X118319523Y-113557447D01*
X118319523Y-113557447D02*
X118357619Y-113519352D01*
X118357619Y-113519352D02*
X118433809Y-113481257D01*
X118433809Y-113481257D02*
X118624285Y-113481257D01*
X118624285Y-113481257D02*
X118700476Y-113519352D01*
X118700476Y-113519352D02*
X118738571Y-113557447D01*
X118738571Y-113557447D02*
X118776666Y-113633638D01*
X118776666Y-113633638D02*
X118776666Y-113824114D01*
X118776666Y-113824114D02*
X118738571Y-113900304D01*
X118738571Y-113900304D02*
X118700476Y-113938400D01*
X118700476Y-113938400D02*
X118624285Y-113976495D01*
X118624285Y-113976495D02*
X118433809Y-113976495D01*
X118433809Y-113976495D02*
X118357619Y-113938400D01*
X118357619Y-113938400D02*
X118319523Y-113900304D01*
X119462381Y-113176495D02*
X119310000Y-113176495D01*
X119310000Y-113176495D02*
X119233809Y-113214590D01*
X119233809Y-113214590D02*
X119195714Y-113252685D01*
X119195714Y-113252685D02*
X119119524Y-113366971D01*
X119119524Y-113366971D02*
X119081428Y-113519352D01*
X119081428Y-113519352D02*
X119081428Y-113824114D01*
X119081428Y-113824114D02*
X119119524Y-113900304D01*
X119119524Y-113900304D02*
X119157619Y-113938400D01*
X119157619Y-113938400D02*
X119233809Y-113976495D01*
X119233809Y-113976495D02*
X119386190Y-113976495D01*
X119386190Y-113976495D02*
X119462381Y-113938400D01*
X119462381Y-113938400D02*
X119500476Y-113900304D01*
X119500476Y-113900304D02*
X119538571Y-113824114D01*
X119538571Y-113824114D02*
X119538571Y-113633638D01*
X119538571Y-113633638D02*
X119500476Y-113557447D01*
X119500476Y-113557447D02*
X119462381Y-113519352D01*
X119462381Y-113519352D02*
X119386190Y-113481257D01*
X119386190Y-113481257D02*
X119233809Y-113481257D01*
X119233809Y-113481257D02*
X119157619Y-113519352D01*
X119157619Y-113519352D02*
X119119524Y-113557447D01*
X119119524Y-113557447D02*
X119081428Y-113633638D01*
X120033810Y-113176495D02*
X120110000Y-113176495D01*
X120110000Y-113176495D02*
X120186191Y-113214590D01*
X120186191Y-113214590D02*
X120224286Y-113252685D01*
X120224286Y-113252685D02*
X120262381Y-113328876D01*
X120262381Y-113328876D02*
X120300476Y-113481257D01*
X120300476Y-113481257D02*
X120300476Y-113671733D01*
X120300476Y-113671733D02*
X120262381Y-113824114D01*
X120262381Y-113824114D02*
X120224286Y-113900304D01*
X120224286Y-113900304D02*
X120186191Y-113938400D01*
X120186191Y-113938400D02*
X120110000Y-113976495D01*
X120110000Y-113976495D02*
X120033810Y-113976495D01*
X120033810Y-113976495D02*
X119957619Y-113938400D01*
X119957619Y-113938400D02*
X119919524Y-113900304D01*
X119919524Y-113900304D02*
X119881429Y-113824114D01*
X119881429Y-113824114D02*
X119843333Y-113671733D01*
X119843333Y-113671733D02*
X119843333Y-113481257D01*
X119843333Y-113481257D02*
X119881429Y-113328876D01*
X119881429Y-113328876D02*
X119919524Y-113252685D01*
X119919524Y-113252685D02*
X119957619Y-113214590D01*
X119957619Y-113214590D02*
X120033810Y-113176495D01*
X106916667Y-81836104D02*
X106878571Y-81874200D01*
X106878571Y-81874200D02*
X106764286Y-81912295D01*
X106764286Y-81912295D02*
X106688095Y-81912295D01*
X106688095Y-81912295D02*
X106573809Y-81874200D01*
X106573809Y-81874200D02*
X106497619Y-81798009D01*
X106497619Y-81798009D02*
X106459524Y-81721819D01*
X106459524Y-81721819D02*
X106421428Y-81569438D01*
X106421428Y-81569438D02*
X106421428Y-81455152D01*
X106421428Y-81455152D02*
X106459524Y-81302771D01*
X106459524Y-81302771D02*
X106497619Y-81226580D01*
X106497619Y-81226580D02*
X106573809Y-81150390D01*
X106573809Y-81150390D02*
X106688095Y-81112295D01*
X106688095Y-81112295D02*
X106764286Y-81112295D01*
X106764286Y-81112295D02*
X106878571Y-81150390D01*
X106878571Y-81150390D02*
X106916667Y-81188485D01*
X107678571Y-81912295D02*
X107221428Y-81912295D01*
X107450000Y-81912295D02*
X107450000Y-81112295D01*
X107450000Y-81112295D02*
X107373809Y-81226580D01*
X107373809Y-81226580D02*
X107297619Y-81302771D01*
X107297619Y-81302771D02*
X107221428Y-81340866D01*
X106192856Y-86012295D02*
X105735713Y-86012295D01*
X105964285Y-86012295D02*
X105964285Y-85212295D01*
X105964285Y-85212295D02*
X105888094Y-85326580D01*
X105888094Y-85326580D02*
X105811904Y-85402771D01*
X105811904Y-85402771D02*
X105735713Y-85440866D01*
X106688095Y-85212295D02*
X106764285Y-85212295D01*
X106764285Y-85212295D02*
X106840476Y-85250390D01*
X106840476Y-85250390D02*
X106878571Y-85288485D01*
X106878571Y-85288485D02*
X106916666Y-85364676D01*
X106916666Y-85364676D02*
X106954761Y-85517057D01*
X106954761Y-85517057D02*
X106954761Y-85707533D01*
X106954761Y-85707533D02*
X106916666Y-85859914D01*
X106916666Y-85859914D02*
X106878571Y-85936104D01*
X106878571Y-85936104D02*
X106840476Y-85974200D01*
X106840476Y-85974200D02*
X106764285Y-86012295D01*
X106764285Y-86012295D02*
X106688095Y-86012295D01*
X106688095Y-86012295D02*
X106611904Y-85974200D01*
X106611904Y-85974200D02*
X106573809Y-85936104D01*
X106573809Y-85936104D02*
X106535714Y-85859914D01*
X106535714Y-85859914D02*
X106497618Y-85707533D01*
X106497618Y-85707533D02*
X106497618Y-85517057D01*
X106497618Y-85517057D02*
X106535714Y-85364676D01*
X106535714Y-85364676D02*
X106573809Y-85288485D01*
X106573809Y-85288485D02*
X106611904Y-85250390D01*
X106611904Y-85250390D02*
X106688095Y-85212295D01*
X107640476Y-85478961D02*
X107640476Y-86012295D01*
X107297619Y-85478961D02*
X107297619Y-85898009D01*
X107297619Y-85898009D02*
X107335714Y-85974200D01*
X107335714Y-85974200D02*
X107411904Y-86012295D01*
X107411904Y-86012295D02*
X107526190Y-86012295D01*
X107526190Y-86012295D02*
X107602381Y-85974200D01*
X107602381Y-85974200D02*
X107640476Y-85936104D01*
X108288095Y-85593247D02*
X108021429Y-85593247D01*
X108021429Y-86012295D02*
X108021429Y-85212295D01*
X108021429Y-85212295D02*
X108402381Y-85212295D01*
X101606667Y-81766104D02*
X101568571Y-81804200D01*
X101568571Y-81804200D02*
X101454286Y-81842295D01*
X101454286Y-81842295D02*
X101378095Y-81842295D01*
X101378095Y-81842295D02*
X101263809Y-81804200D01*
X101263809Y-81804200D02*
X101187619Y-81728009D01*
X101187619Y-81728009D02*
X101149524Y-81651819D01*
X101149524Y-81651819D02*
X101111428Y-81499438D01*
X101111428Y-81499438D02*
X101111428Y-81385152D01*
X101111428Y-81385152D02*
X101149524Y-81232771D01*
X101149524Y-81232771D02*
X101187619Y-81156580D01*
X101187619Y-81156580D02*
X101263809Y-81080390D01*
X101263809Y-81080390D02*
X101378095Y-81042295D01*
X101378095Y-81042295D02*
X101454286Y-81042295D01*
X101454286Y-81042295D02*
X101568571Y-81080390D01*
X101568571Y-81080390D02*
X101606667Y-81118485D01*
X101911428Y-81118485D02*
X101949524Y-81080390D01*
X101949524Y-81080390D02*
X102025714Y-81042295D01*
X102025714Y-81042295D02*
X102216190Y-81042295D01*
X102216190Y-81042295D02*
X102292381Y-81080390D01*
X102292381Y-81080390D02*
X102330476Y-81118485D01*
X102330476Y-81118485D02*
X102368571Y-81194676D01*
X102368571Y-81194676D02*
X102368571Y-81270866D01*
X102368571Y-81270866D02*
X102330476Y-81385152D01*
X102330476Y-81385152D02*
X101873333Y-81842295D01*
X101873333Y-81842295D02*
X102368571Y-81842295D01*
X100425714Y-85142295D02*
X100501904Y-85142295D01*
X100501904Y-85142295D02*
X100578095Y-85180390D01*
X100578095Y-85180390D02*
X100616190Y-85218485D01*
X100616190Y-85218485D02*
X100654285Y-85294676D01*
X100654285Y-85294676D02*
X100692380Y-85447057D01*
X100692380Y-85447057D02*
X100692380Y-85637533D01*
X100692380Y-85637533D02*
X100654285Y-85789914D01*
X100654285Y-85789914D02*
X100616190Y-85866104D01*
X100616190Y-85866104D02*
X100578095Y-85904200D01*
X100578095Y-85904200D02*
X100501904Y-85942295D01*
X100501904Y-85942295D02*
X100425714Y-85942295D01*
X100425714Y-85942295D02*
X100349523Y-85904200D01*
X100349523Y-85904200D02*
X100311428Y-85866104D01*
X100311428Y-85866104D02*
X100273333Y-85789914D01*
X100273333Y-85789914D02*
X100235237Y-85637533D01*
X100235237Y-85637533D02*
X100235237Y-85447057D01*
X100235237Y-85447057D02*
X100273333Y-85294676D01*
X100273333Y-85294676D02*
X100311428Y-85218485D01*
X100311428Y-85218485D02*
X100349523Y-85180390D01*
X100349523Y-85180390D02*
X100425714Y-85142295D01*
X101035238Y-85866104D02*
X101073333Y-85904200D01*
X101073333Y-85904200D02*
X101035238Y-85942295D01*
X101035238Y-85942295D02*
X100997142Y-85904200D01*
X100997142Y-85904200D02*
X101035238Y-85866104D01*
X101035238Y-85866104D02*
X101035238Y-85942295D01*
X101835237Y-85942295D02*
X101378094Y-85942295D01*
X101606666Y-85942295D02*
X101606666Y-85142295D01*
X101606666Y-85142295D02*
X101530475Y-85256580D01*
X101530475Y-85256580D02*
X101454285Y-85332771D01*
X101454285Y-85332771D02*
X101378094Y-85370866D01*
X102520952Y-85408961D02*
X102520952Y-85942295D01*
X102178095Y-85408961D02*
X102178095Y-85828009D01*
X102178095Y-85828009D02*
X102216190Y-85904200D01*
X102216190Y-85904200D02*
X102292380Y-85942295D01*
X102292380Y-85942295D02*
X102406666Y-85942295D01*
X102406666Y-85942295D02*
X102482857Y-85904200D01*
X102482857Y-85904200D02*
X102520952Y-85866104D01*
X103168571Y-85523247D02*
X102901905Y-85523247D01*
X102901905Y-85942295D02*
X102901905Y-85142295D01*
X102901905Y-85142295D02*
X103282857Y-85142295D01*
X119859524Y-97952295D02*
X119859524Y-97152295D01*
X119859524Y-97152295D02*
X120050000Y-97152295D01*
X120050000Y-97152295D02*
X120164286Y-97190390D01*
X120164286Y-97190390D02*
X120240476Y-97266580D01*
X120240476Y-97266580D02*
X120278571Y-97342771D01*
X120278571Y-97342771D02*
X120316667Y-97495152D01*
X120316667Y-97495152D02*
X120316667Y-97609438D01*
X120316667Y-97609438D02*
X120278571Y-97761819D01*
X120278571Y-97761819D02*
X120240476Y-97838009D01*
X120240476Y-97838009D02*
X120164286Y-97914200D01*
X120164286Y-97914200D02*
X120050000Y-97952295D01*
X120050000Y-97952295D02*
X119859524Y-97952295D01*
X121078571Y-97952295D02*
X120621428Y-97952295D01*
X120850000Y-97952295D02*
X120850000Y-97152295D01*
X120850000Y-97152295D02*
X120773809Y-97266580D01*
X120773809Y-97266580D02*
X120697619Y-97342771D01*
X120697619Y-97342771D02*
X120621428Y-97380866D01*
X119935714Y-105872295D02*
X119554762Y-105872295D01*
X119554762Y-105872295D02*
X119554762Y-105072295D01*
X120202381Y-105453247D02*
X120469047Y-105453247D01*
X120583333Y-105872295D02*
X120202381Y-105872295D01*
X120202381Y-105872295D02*
X120202381Y-105072295D01*
X120202381Y-105072295D02*
X120583333Y-105072295D01*
X120926191Y-105872295D02*
X120926191Y-105072295D01*
X120926191Y-105072295D02*
X121116667Y-105072295D01*
X121116667Y-105072295D02*
X121230953Y-105110390D01*
X121230953Y-105110390D02*
X121307143Y-105186580D01*
X121307143Y-105186580D02*
X121345238Y-105262771D01*
X121345238Y-105262771D02*
X121383334Y-105415152D01*
X121383334Y-105415152D02*
X121383334Y-105529438D01*
X121383334Y-105529438D02*
X121345238Y-105681819D01*
X121345238Y-105681819D02*
X121307143Y-105758009D01*
X121307143Y-105758009D02*
X121230953Y-105834200D01*
X121230953Y-105834200D02*
X121116667Y-105872295D01*
X121116667Y-105872295D02*
X120926191Y-105872295D01*
X119056667Y-92622295D02*
X118790000Y-92241342D01*
X118599524Y-92622295D02*
X118599524Y-91822295D01*
X118599524Y-91822295D02*
X118904286Y-91822295D01*
X118904286Y-91822295D02*
X118980476Y-91860390D01*
X118980476Y-91860390D02*
X119018571Y-91898485D01*
X119018571Y-91898485D02*
X119056667Y-91974676D01*
X119056667Y-91974676D02*
X119056667Y-92088961D01*
X119056667Y-92088961D02*
X119018571Y-92165152D01*
X119018571Y-92165152D02*
X118980476Y-92203247D01*
X118980476Y-92203247D02*
X118904286Y-92241342D01*
X118904286Y-92241342D02*
X118599524Y-92241342D01*
X119361428Y-91898485D02*
X119399524Y-91860390D01*
X119399524Y-91860390D02*
X119475714Y-91822295D01*
X119475714Y-91822295D02*
X119666190Y-91822295D01*
X119666190Y-91822295D02*
X119742381Y-91860390D01*
X119742381Y-91860390D02*
X119780476Y-91898485D01*
X119780476Y-91898485D02*
X119818571Y-91974676D01*
X119818571Y-91974676D02*
X119818571Y-92050866D01*
X119818571Y-92050866D02*
X119780476Y-92165152D01*
X119780476Y-92165152D02*
X119323333Y-92622295D01*
X119323333Y-92622295D02*
X119818571Y-92622295D01*
X118161428Y-93742295D02*
X118656666Y-93742295D01*
X118656666Y-93742295D02*
X118390000Y-94047057D01*
X118390000Y-94047057D02*
X118504285Y-94047057D01*
X118504285Y-94047057D02*
X118580476Y-94085152D01*
X118580476Y-94085152D02*
X118618571Y-94123247D01*
X118618571Y-94123247D02*
X118656666Y-94199438D01*
X118656666Y-94199438D02*
X118656666Y-94389914D01*
X118656666Y-94389914D02*
X118618571Y-94466104D01*
X118618571Y-94466104D02*
X118580476Y-94504200D01*
X118580476Y-94504200D02*
X118504285Y-94542295D01*
X118504285Y-94542295D02*
X118275714Y-94542295D01*
X118275714Y-94542295D02*
X118199523Y-94504200D01*
X118199523Y-94504200D02*
X118161428Y-94466104D01*
X118923333Y-93742295D02*
X119418571Y-93742295D01*
X119418571Y-93742295D02*
X119151905Y-94047057D01*
X119151905Y-94047057D02*
X119266190Y-94047057D01*
X119266190Y-94047057D02*
X119342381Y-94085152D01*
X119342381Y-94085152D02*
X119380476Y-94123247D01*
X119380476Y-94123247D02*
X119418571Y-94199438D01*
X119418571Y-94199438D02*
X119418571Y-94389914D01*
X119418571Y-94389914D02*
X119380476Y-94466104D01*
X119380476Y-94466104D02*
X119342381Y-94504200D01*
X119342381Y-94504200D02*
X119266190Y-94542295D01*
X119266190Y-94542295D02*
X119037619Y-94542295D01*
X119037619Y-94542295D02*
X118961428Y-94504200D01*
X118961428Y-94504200D02*
X118923333Y-94466104D01*
X119913810Y-93742295D02*
X119990000Y-93742295D01*
X119990000Y-93742295D02*
X120066191Y-93780390D01*
X120066191Y-93780390D02*
X120104286Y-93818485D01*
X120104286Y-93818485D02*
X120142381Y-93894676D01*
X120142381Y-93894676D02*
X120180476Y-94047057D01*
X120180476Y-94047057D02*
X120180476Y-94237533D01*
X120180476Y-94237533D02*
X120142381Y-94389914D01*
X120142381Y-94389914D02*
X120104286Y-94466104D01*
X120104286Y-94466104D02*
X120066191Y-94504200D01*
X120066191Y-94504200D02*
X119990000Y-94542295D01*
X119990000Y-94542295D02*
X119913810Y-94542295D01*
X119913810Y-94542295D02*
X119837619Y-94504200D01*
X119837619Y-94504200D02*
X119799524Y-94466104D01*
X119799524Y-94466104D02*
X119761429Y-94389914D01*
X119761429Y-94389914D02*
X119723333Y-94237533D01*
X119723333Y-94237533D02*
X119723333Y-94047057D01*
X119723333Y-94047057D02*
X119761429Y-93894676D01*
X119761429Y-93894676D02*
X119799524Y-93818485D01*
X119799524Y-93818485D02*
X119837619Y-93780390D01*
X119837619Y-93780390D02*
X119913810Y-93742295D01*
X103450476Y-108752295D02*
X103450476Y-109399914D01*
X103450476Y-109399914D02*
X103488571Y-109476104D01*
X103488571Y-109476104D02*
X103526666Y-109514200D01*
X103526666Y-109514200D02*
X103602857Y-109552295D01*
X103602857Y-109552295D02*
X103755238Y-109552295D01*
X103755238Y-109552295D02*
X103831428Y-109514200D01*
X103831428Y-109514200D02*
X103869523Y-109476104D01*
X103869523Y-109476104D02*
X103907619Y-109399914D01*
X103907619Y-109399914D02*
X103907619Y-108752295D01*
X104250475Y-108828485D02*
X104288571Y-108790390D01*
X104288571Y-108790390D02*
X104364761Y-108752295D01*
X104364761Y-108752295D02*
X104555237Y-108752295D01*
X104555237Y-108752295D02*
X104631428Y-108790390D01*
X104631428Y-108790390D02*
X104669523Y-108828485D01*
X104669523Y-108828485D02*
X104707618Y-108904676D01*
X104707618Y-108904676D02*
X104707618Y-108980866D01*
X104707618Y-108980866D02*
X104669523Y-109095152D01*
X104669523Y-109095152D02*
X104212380Y-109552295D01*
X104212380Y-109552295D02*
X104707618Y-109552295D01*
X100040951Y-115852295D02*
X99659999Y-115852295D01*
X99659999Y-115852295D02*
X99659999Y-115052295D01*
X100307618Y-115852295D02*
X100307618Y-115052295D01*
X100307618Y-115052295D02*
X100574284Y-115623723D01*
X100574284Y-115623723D02*
X100840951Y-115052295D01*
X100840951Y-115052295D02*
X100840951Y-115852295D01*
X101145713Y-115052295D02*
X101640951Y-115052295D01*
X101640951Y-115052295D02*
X101374285Y-115357057D01*
X101374285Y-115357057D02*
X101488570Y-115357057D01*
X101488570Y-115357057D02*
X101564761Y-115395152D01*
X101564761Y-115395152D02*
X101602856Y-115433247D01*
X101602856Y-115433247D02*
X101640951Y-115509438D01*
X101640951Y-115509438D02*
X101640951Y-115699914D01*
X101640951Y-115699914D02*
X101602856Y-115776104D01*
X101602856Y-115776104D02*
X101564761Y-115814200D01*
X101564761Y-115814200D02*
X101488570Y-115852295D01*
X101488570Y-115852295D02*
X101259999Y-115852295D01*
X101259999Y-115852295D02*
X101183808Y-115814200D01*
X101183808Y-115814200D02*
X101145713Y-115776104D01*
X102402856Y-115852295D02*
X101945713Y-115852295D01*
X102174285Y-115852295D02*
X102174285Y-115052295D01*
X102174285Y-115052295D02*
X102098094Y-115166580D01*
X102098094Y-115166580D02*
X102021904Y-115242771D01*
X102021904Y-115242771D02*
X101945713Y-115280866D01*
X102669523Y-115052295D02*
X103202857Y-115052295D01*
X103202857Y-115052295D02*
X102859999Y-115852295D01*
X103317143Y-115928485D02*
X103926666Y-115928485D01*
X104002857Y-115052295D02*
X104460000Y-115052295D01*
X104231428Y-115852295D02*
X104231428Y-115052295D01*
X104879048Y-115052295D02*
X105031429Y-115052295D01*
X105031429Y-115052295D02*
X105107619Y-115090390D01*
X105107619Y-115090390D02*
X105183810Y-115166580D01*
X105183810Y-115166580D02*
X105221905Y-115318961D01*
X105221905Y-115318961D02*
X105221905Y-115585628D01*
X105221905Y-115585628D02*
X105183810Y-115738009D01*
X105183810Y-115738009D02*
X105107619Y-115814200D01*
X105107619Y-115814200D02*
X105031429Y-115852295D01*
X105031429Y-115852295D02*
X104879048Y-115852295D01*
X104879048Y-115852295D02*
X104802857Y-115814200D01*
X104802857Y-115814200D02*
X104726667Y-115738009D01*
X104726667Y-115738009D02*
X104688571Y-115585628D01*
X104688571Y-115585628D02*
X104688571Y-115318961D01*
X104688571Y-115318961D02*
X104726667Y-115166580D01*
X104726667Y-115166580D02*
X104802857Y-115090390D01*
X104802857Y-115090390D02*
X104879048Y-115052295D01*
X105564762Y-115547533D02*
X106174286Y-115547533D01*
X106517142Y-115128485D02*
X106555238Y-115090390D01*
X106555238Y-115090390D02*
X106631428Y-115052295D01*
X106631428Y-115052295D02*
X106821904Y-115052295D01*
X106821904Y-115052295D02*
X106898095Y-115090390D01*
X106898095Y-115090390D02*
X106936190Y-115128485D01*
X106936190Y-115128485D02*
X106974285Y-115204676D01*
X106974285Y-115204676D02*
X106974285Y-115280866D01*
X106974285Y-115280866D02*
X106936190Y-115395152D01*
X106936190Y-115395152D02*
X106479047Y-115852295D01*
X106479047Y-115852295D02*
X106974285Y-115852295D01*
X107279047Y-115128485D02*
X107317143Y-115090390D01*
X107317143Y-115090390D02*
X107393333Y-115052295D01*
X107393333Y-115052295D02*
X107583809Y-115052295D01*
X107583809Y-115052295D02*
X107660000Y-115090390D01*
X107660000Y-115090390D02*
X107698095Y-115128485D01*
X107698095Y-115128485D02*
X107736190Y-115204676D01*
X107736190Y-115204676D02*
X107736190Y-115280866D01*
X107736190Y-115280866D02*
X107698095Y-115395152D01*
X107698095Y-115395152D02*
X107240952Y-115852295D01*
X107240952Y-115852295D02*
X107736190Y-115852295D01*
X108231429Y-115052295D02*
X108307619Y-115052295D01*
X108307619Y-115052295D02*
X108383810Y-115090390D01*
X108383810Y-115090390D02*
X108421905Y-115128485D01*
X108421905Y-115128485D02*
X108460000Y-115204676D01*
X108460000Y-115204676D02*
X108498095Y-115357057D01*
X108498095Y-115357057D02*
X108498095Y-115547533D01*
X108498095Y-115547533D02*
X108460000Y-115699914D01*
X108460000Y-115699914D02*
X108421905Y-115776104D01*
X108421905Y-115776104D02*
X108383810Y-115814200D01*
X108383810Y-115814200D02*
X108307619Y-115852295D01*
X108307619Y-115852295D02*
X108231429Y-115852295D01*
X108231429Y-115852295D02*
X108155238Y-115814200D01*
X108155238Y-115814200D02*
X108117143Y-115776104D01*
X108117143Y-115776104D02*
X108079048Y-115699914D01*
X108079048Y-115699914D02*
X108040952Y-115547533D01*
X108040952Y-115547533D02*
X108040952Y-115357057D01*
X108040952Y-115357057D02*
X108079048Y-115204676D01*
X108079048Y-115204676D02*
X108117143Y-115128485D01*
X108117143Y-115128485D02*
X108155238Y-115090390D01*
X108155238Y-115090390D02*
X108231429Y-115052295D01*
X104483733Y-106402295D02*
X104483733Y-106973723D01*
X104483733Y-106973723D02*
X104445638Y-107088009D01*
X104445638Y-107088009D02*
X104369447Y-107164200D01*
X104369447Y-107164200D02*
X104255162Y-107202295D01*
X104255162Y-107202295D02*
X104178971Y-107202295D01*
X105207543Y-106402295D02*
X105055162Y-106402295D01*
X105055162Y-106402295D02*
X104978971Y-106440390D01*
X104978971Y-106440390D02*
X104940876Y-106478485D01*
X104940876Y-106478485D02*
X104864686Y-106592771D01*
X104864686Y-106592771D02*
X104826590Y-106745152D01*
X104826590Y-106745152D02*
X104826590Y-107049914D01*
X104826590Y-107049914D02*
X104864686Y-107126104D01*
X104864686Y-107126104D02*
X104902781Y-107164200D01*
X104902781Y-107164200D02*
X104978971Y-107202295D01*
X104978971Y-107202295D02*
X105131352Y-107202295D01*
X105131352Y-107202295D02*
X105207543Y-107164200D01*
X105207543Y-107164200D02*
X105245638Y-107126104D01*
X105245638Y-107126104D02*
X105283733Y-107049914D01*
X105283733Y-107049914D02*
X105283733Y-106859438D01*
X105283733Y-106859438D02*
X105245638Y-106783247D01*
X105245638Y-106783247D02*
X105207543Y-106745152D01*
X105207543Y-106745152D02*
X105131352Y-106707057D01*
X105131352Y-106707057D02*
X104978971Y-106707057D01*
X104978971Y-106707057D02*
X104902781Y-106745152D01*
X104902781Y-106745152D02*
X104864686Y-106783247D01*
X104864686Y-106783247D02*
X104826590Y-106859438D01*
X101100951Y-97766455D02*
X101215237Y-97804550D01*
X101215237Y-97804550D02*
X101253332Y-97842646D01*
X101253332Y-97842646D02*
X101291428Y-97918836D01*
X101291428Y-97918836D02*
X101291428Y-98033122D01*
X101291428Y-98033122D02*
X101253332Y-98109312D01*
X101253332Y-98109312D02*
X101215237Y-98147408D01*
X101215237Y-98147408D02*
X101139047Y-98185503D01*
X101139047Y-98185503D02*
X100834285Y-98185503D01*
X100834285Y-98185503D02*
X100834285Y-97385503D01*
X100834285Y-97385503D02*
X101100951Y-97385503D01*
X101100951Y-97385503D02*
X101177142Y-97423598D01*
X101177142Y-97423598D02*
X101215237Y-97461693D01*
X101215237Y-97461693D02*
X101253332Y-97537884D01*
X101253332Y-97537884D02*
X101253332Y-97614074D01*
X101253332Y-97614074D02*
X101215237Y-97690265D01*
X101215237Y-97690265D02*
X101177142Y-97728360D01*
X101177142Y-97728360D02*
X101100951Y-97766455D01*
X101100951Y-97766455D02*
X100834285Y-97766455D01*
X101977142Y-98185503D02*
X101977142Y-97766455D01*
X101977142Y-97766455D02*
X101939047Y-97690265D01*
X101939047Y-97690265D02*
X101862856Y-97652169D01*
X101862856Y-97652169D02*
X101710475Y-97652169D01*
X101710475Y-97652169D02*
X101634285Y-97690265D01*
X101977142Y-98147408D02*
X101900951Y-98185503D01*
X101900951Y-98185503D02*
X101710475Y-98185503D01*
X101710475Y-98185503D02*
X101634285Y-98147408D01*
X101634285Y-98147408D02*
X101596189Y-98071217D01*
X101596189Y-98071217D02*
X101596189Y-97995027D01*
X101596189Y-97995027D02*
X101634285Y-97918836D01*
X101634285Y-97918836D02*
X101710475Y-97880741D01*
X101710475Y-97880741D02*
X101900951Y-97880741D01*
X101900951Y-97880741D02*
X101977142Y-97842646D01*
X102358095Y-98185503D02*
X102358095Y-97652169D01*
X102358095Y-97804550D02*
X102396190Y-97728360D01*
X102396190Y-97728360D02*
X102434285Y-97690265D01*
X102434285Y-97690265D02*
X102510476Y-97652169D01*
X102510476Y-97652169D02*
X102586666Y-97652169D01*
X102853333Y-98185503D02*
X102853333Y-97652169D01*
X102853333Y-97804550D02*
X102891428Y-97728360D01*
X102891428Y-97728360D02*
X102929523Y-97690265D01*
X102929523Y-97690265D02*
X103005714Y-97652169D01*
X103005714Y-97652169D02*
X103081904Y-97652169D01*
X103653333Y-98147408D02*
X103577142Y-98185503D01*
X103577142Y-98185503D02*
X103424761Y-98185503D01*
X103424761Y-98185503D02*
X103348571Y-98147408D01*
X103348571Y-98147408D02*
X103310475Y-98071217D01*
X103310475Y-98071217D02*
X103310475Y-97766455D01*
X103310475Y-97766455D02*
X103348571Y-97690265D01*
X103348571Y-97690265D02*
X103424761Y-97652169D01*
X103424761Y-97652169D02*
X103577142Y-97652169D01*
X103577142Y-97652169D02*
X103653333Y-97690265D01*
X103653333Y-97690265D02*
X103691428Y-97766455D01*
X103691428Y-97766455D02*
X103691428Y-97842646D01*
X103691428Y-97842646D02*
X103310475Y-97918836D01*
X104148570Y-98185503D02*
X104072380Y-98147408D01*
X104072380Y-98147408D02*
X104034285Y-98071217D01*
X104034285Y-98071217D02*
X104034285Y-97385503D01*
X104262857Y-98261693D02*
X104872380Y-98261693D01*
X105291428Y-97385503D02*
X105291428Y-97956931D01*
X105291428Y-97956931D02*
X105253333Y-98071217D01*
X105253333Y-98071217D02*
X105177142Y-98147408D01*
X105177142Y-98147408D02*
X105062857Y-98185503D01*
X105062857Y-98185503D02*
X104986666Y-98185503D01*
X106015238Y-98185503D02*
X106015238Y-97766455D01*
X106015238Y-97766455D02*
X105977143Y-97690265D01*
X105977143Y-97690265D02*
X105900952Y-97652169D01*
X105900952Y-97652169D02*
X105748571Y-97652169D01*
X105748571Y-97652169D02*
X105672381Y-97690265D01*
X106015238Y-98147408D02*
X105939047Y-98185503D01*
X105939047Y-98185503D02*
X105748571Y-98185503D01*
X105748571Y-98185503D02*
X105672381Y-98147408D01*
X105672381Y-98147408D02*
X105634285Y-98071217D01*
X105634285Y-98071217D02*
X105634285Y-97995027D01*
X105634285Y-97995027D02*
X105672381Y-97918836D01*
X105672381Y-97918836D02*
X105748571Y-97880741D01*
X105748571Y-97880741D02*
X105939047Y-97880741D01*
X105939047Y-97880741D02*
X106015238Y-97842646D01*
X106739048Y-98147408D02*
X106662857Y-98185503D01*
X106662857Y-98185503D02*
X106510476Y-98185503D01*
X106510476Y-98185503D02*
X106434286Y-98147408D01*
X106434286Y-98147408D02*
X106396191Y-98109312D01*
X106396191Y-98109312D02*
X106358095Y-98033122D01*
X106358095Y-98033122D02*
X106358095Y-97804550D01*
X106358095Y-97804550D02*
X106396191Y-97728360D01*
X106396191Y-97728360D02*
X106434286Y-97690265D01*
X106434286Y-97690265D02*
X106510476Y-97652169D01*
X106510476Y-97652169D02*
X106662857Y-97652169D01*
X106662857Y-97652169D02*
X106739048Y-97690265D01*
X107081905Y-98185503D02*
X107081905Y-97385503D01*
X107158095Y-97880741D02*
X107386667Y-98185503D01*
X107386667Y-97652169D02*
X107081905Y-97956931D01*
X107539048Y-98261693D02*
X108148571Y-98261693D01*
X108300952Y-98147408D02*
X108415238Y-98185503D01*
X108415238Y-98185503D02*
X108605714Y-98185503D01*
X108605714Y-98185503D02*
X108681905Y-98147408D01*
X108681905Y-98147408D02*
X108720000Y-98109312D01*
X108720000Y-98109312D02*
X108758095Y-98033122D01*
X108758095Y-98033122D02*
X108758095Y-97956931D01*
X108758095Y-97956931D02*
X108720000Y-97880741D01*
X108720000Y-97880741D02*
X108681905Y-97842646D01*
X108681905Y-97842646D02*
X108605714Y-97804550D01*
X108605714Y-97804550D02*
X108453333Y-97766455D01*
X108453333Y-97766455D02*
X108377143Y-97728360D01*
X108377143Y-97728360D02*
X108339048Y-97690265D01*
X108339048Y-97690265D02*
X108300952Y-97614074D01*
X108300952Y-97614074D02*
X108300952Y-97537884D01*
X108300952Y-97537884D02*
X108339048Y-97461693D01*
X108339048Y-97461693D02*
X108377143Y-97423598D01*
X108377143Y-97423598D02*
X108453333Y-97385503D01*
X108453333Y-97385503D02*
X108643810Y-97385503D01*
X108643810Y-97385503D02*
X108758095Y-97423598D01*
X109024762Y-97652169D02*
X109177143Y-98185503D01*
X109177143Y-98185503D02*
X109329524Y-97804550D01*
X109329524Y-97804550D02*
X109481905Y-98185503D01*
X109481905Y-98185503D02*
X109634286Y-97652169D01*
X109939048Y-98185503D02*
X109939048Y-97652169D01*
X109939048Y-97385503D02*
X109900952Y-97423598D01*
X109900952Y-97423598D02*
X109939048Y-97461693D01*
X109939048Y-97461693D02*
X109977143Y-97423598D01*
X109977143Y-97423598D02*
X109939048Y-97385503D01*
X109939048Y-97385503D02*
X109939048Y-97461693D01*
X110205714Y-97652169D02*
X110510476Y-97652169D01*
X110320000Y-97385503D02*
X110320000Y-98071217D01*
X110320000Y-98071217D02*
X110358095Y-98147408D01*
X110358095Y-98147408D02*
X110434285Y-98185503D01*
X110434285Y-98185503D02*
X110510476Y-98185503D01*
X111120000Y-98147408D02*
X111043809Y-98185503D01*
X111043809Y-98185503D02*
X110891428Y-98185503D01*
X110891428Y-98185503D02*
X110815238Y-98147408D01*
X110815238Y-98147408D02*
X110777143Y-98109312D01*
X110777143Y-98109312D02*
X110739047Y-98033122D01*
X110739047Y-98033122D02*
X110739047Y-97804550D01*
X110739047Y-97804550D02*
X110777143Y-97728360D01*
X110777143Y-97728360D02*
X110815238Y-97690265D01*
X110815238Y-97690265D02*
X110891428Y-97652169D01*
X110891428Y-97652169D02*
X111043809Y-97652169D01*
X111043809Y-97652169D02*
X111120000Y-97690265D01*
X111462857Y-98185503D02*
X111462857Y-97385503D01*
X111805714Y-98185503D02*
X111805714Y-97766455D01*
X111805714Y-97766455D02*
X111767619Y-97690265D01*
X111767619Y-97690265D02*
X111691428Y-97652169D01*
X111691428Y-97652169D02*
X111577142Y-97652169D01*
X111577142Y-97652169D02*
X111500952Y-97690265D01*
X111500952Y-97690265D02*
X111462857Y-97728360D01*
X98502295Y-122566666D02*
X99073723Y-122566666D01*
X99073723Y-122566666D02*
X99188009Y-122604761D01*
X99188009Y-122604761D02*
X99264200Y-122680952D01*
X99264200Y-122680952D02*
X99302295Y-122795237D01*
X99302295Y-122795237D02*
X99302295Y-122871428D01*
X98768961Y-121842856D02*
X99302295Y-121842856D01*
X98464200Y-122033332D02*
X99035628Y-122223809D01*
X99035628Y-122223809D02*
X99035628Y-121728570D01*
X112613333Y-83752295D02*
X112613333Y-84323723D01*
X112613333Y-84323723D02*
X112575238Y-84438009D01*
X112575238Y-84438009D02*
X112499047Y-84514200D01*
X112499047Y-84514200D02*
X112384762Y-84552295D01*
X112384762Y-84552295D02*
X112308571Y-84552295D01*
X113375238Y-83752295D02*
X112994286Y-83752295D01*
X112994286Y-83752295D02*
X112956190Y-84133247D01*
X112956190Y-84133247D02*
X112994286Y-84095152D01*
X112994286Y-84095152D02*
X113070476Y-84057057D01*
X113070476Y-84057057D02*
X113260952Y-84057057D01*
X113260952Y-84057057D02*
X113337143Y-84095152D01*
X113337143Y-84095152D02*
X113375238Y-84133247D01*
X113375238Y-84133247D02*
X113413333Y-84209438D01*
X113413333Y-84209438D02*
X113413333Y-84399914D01*
X113413333Y-84399914D02*
X113375238Y-84476104D01*
X113375238Y-84476104D02*
X113337143Y-84514200D01*
X113337143Y-84514200D02*
X113260952Y-84552295D01*
X113260952Y-84552295D02*
X113070476Y-84552295D01*
X113070476Y-84552295D02*
X112994286Y-84514200D01*
X112994286Y-84514200D02*
X112956190Y-84476104D01*
X119166667Y-107242295D02*
X118900000Y-106861342D01*
X118709524Y-107242295D02*
X118709524Y-106442295D01*
X118709524Y-106442295D02*
X119014286Y-106442295D01*
X119014286Y-106442295D02*
X119090476Y-106480390D01*
X119090476Y-106480390D02*
X119128571Y-106518485D01*
X119128571Y-106518485D02*
X119166667Y-106594676D01*
X119166667Y-106594676D02*
X119166667Y-106708961D01*
X119166667Y-106708961D02*
X119128571Y-106785152D01*
X119128571Y-106785152D02*
X119090476Y-106823247D01*
X119090476Y-106823247D02*
X119014286Y-106861342D01*
X119014286Y-106861342D02*
X118709524Y-106861342D01*
X119928571Y-107242295D02*
X119471428Y-107242295D01*
X119700000Y-107242295D02*
X119700000Y-106442295D01*
X119700000Y-106442295D02*
X119623809Y-106556580D01*
X119623809Y-106556580D02*
X119547619Y-106632771D01*
X119547619Y-106632771D02*
X119471428Y-106670866D01*
X118271428Y-108362295D02*
X118766666Y-108362295D01*
X118766666Y-108362295D02*
X118500000Y-108667057D01*
X118500000Y-108667057D02*
X118614285Y-108667057D01*
X118614285Y-108667057D02*
X118690476Y-108705152D01*
X118690476Y-108705152D02*
X118728571Y-108743247D01*
X118728571Y-108743247D02*
X118766666Y-108819438D01*
X118766666Y-108819438D02*
X118766666Y-109009914D01*
X118766666Y-109009914D02*
X118728571Y-109086104D01*
X118728571Y-109086104D02*
X118690476Y-109124200D01*
X118690476Y-109124200D02*
X118614285Y-109162295D01*
X118614285Y-109162295D02*
X118385714Y-109162295D01*
X118385714Y-109162295D02*
X118309523Y-109124200D01*
X118309523Y-109124200D02*
X118271428Y-109086104D01*
X119033333Y-108362295D02*
X119528571Y-108362295D01*
X119528571Y-108362295D02*
X119261905Y-108667057D01*
X119261905Y-108667057D02*
X119376190Y-108667057D01*
X119376190Y-108667057D02*
X119452381Y-108705152D01*
X119452381Y-108705152D02*
X119490476Y-108743247D01*
X119490476Y-108743247D02*
X119528571Y-108819438D01*
X119528571Y-108819438D02*
X119528571Y-109009914D01*
X119528571Y-109009914D02*
X119490476Y-109086104D01*
X119490476Y-109086104D02*
X119452381Y-109124200D01*
X119452381Y-109124200D02*
X119376190Y-109162295D01*
X119376190Y-109162295D02*
X119147619Y-109162295D01*
X119147619Y-109162295D02*
X119071428Y-109124200D01*
X119071428Y-109124200D02*
X119033333Y-109086104D01*
X120023810Y-108362295D02*
X120100000Y-108362295D01*
X120100000Y-108362295D02*
X120176191Y-108400390D01*
X120176191Y-108400390D02*
X120214286Y-108438485D01*
X120214286Y-108438485D02*
X120252381Y-108514676D01*
X120252381Y-108514676D02*
X120290476Y-108667057D01*
X120290476Y-108667057D02*
X120290476Y-108857533D01*
X120290476Y-108857533D02*
X120252381Y-109009914D01*
X120252381Y-109009914D02*
X120214286Y-109086104D01*
X120214286Y-109086104D02*
X120176191Y-109124200D01*
X120176191Y-109124200D02*
X120100000Y-109162295D01*
X120100000Y-109162295D02*
X120023810Y-109162295D01*
X120023810Y-109162295D02*
X119947619Y-109124200D01*
X119947619Y-109124200D02*
X119909524Y-109086104D01*
X119909524Y-109086104D02*
X119871429Y-109009914D01*
X119871429Y-109009914D02*
X119833333Y-108857533D01*
X119833333Y-108857533D02*
X119833333Y-108667057D01*
X119833333Y-108667057D02*
X119871429Y-108514676D01*
X119871429Y-108514676D02*
X119909524Y-108438485D01*
X119909524Y-108438485D02*
X119947619Y-108400390D01*
X119947619Y-108400390D02*
X120023810Y-108362295D01*
X104910476Y-92102295D02*
X104910476Y-92749914D01*
X104910476Y-92749914D02*
X104948571Y-92826104D01*
X104948571Y-92826104D02*
X104986666Y-92864200D01*
X104986666Y-92864200D02*
X105062857Y-92902295D01*
X105062857Y-92902295D02*
X105215238Y-92902295D01*
X105215238Y-92902295D02*
X105291428Y-92864200D01*
X105291428Y-92864200D02*
X105329523Y-92826104D01*
X105329523Y-92826104D02*
X105367619Y-92749914D01*
X105367619Y-92749914D02*
X105367619Y-92102295D01*
X106167618Y-92902295D02*
X105710475Y-92902295D01*
X105939047Y-92902295D02*
X105939047Y-92102295D01*
X105939047Y-92102295D02*
X105862856Y-92216580D01*
X105862856Y-92216580D02*
X105786666Y-92292771D01*
X105786666Y-92292771D02*
X105710475Y-92330866D01*
X101615237Y-94412295D02*
X101234285Y-94412295D01*
X101234285Y-94412295D02*
X101234285Y-93612295D01*
X101881904Y-94412295D02*
X101881904Y-93612295D01*
X101881904Y-93612295D02*
X102148570Y-94183723D01*
X102148570Y-94183723D02*
X102415237Y-93612295D01*
X102415237Y-93612295D02*
X102415237Y-94412295D01*
X102719999Y-93612295D02*
X103253333Y-93612295D01*
X103253333Y-93612295D02*
X102910475Y-94412295D01*
X103672380Y-93955152D02*
X103596190Y-93917057D01*
X103596190Y-93917057D02*
X103558095Y-93878961D01*
X103558095Y-93878961D02*
X103519999Y-93802771D01*
X103519999Y-93802771D02*
X103519999Y-93764676D01*
X103519999Y-93764676D02*
X103558095Y-93688485D01*
X103558095Y-93688485D02*
X103596190Y-93650390D01*
X103596190Y-93650390D02*
X103672380Y-93612295D01*
X103672380Y-93612295D02*
X103824761Y-93612295D01*
X103824761Y-93612295D02*
X103900952Y-93650390D01*
X103900952Y-93650390D02*
X103939047Y-93688485D01*
X103939047Y-93688485D02*
X103977142Y-93764676D01*
X103977142Y-93764676D02*
X103977142Y-93802771D01*
X103977142Y-93802771D02*
X103939047Y-93878961D01*
X103939047Y-93878961D02*
X103900952Y-93917057D01*
X103900952Y-93917057D02*
X103824761Y-93955152D01*
X103824761Y-93955152D02*
X103672380Y-93955152D01*
X103672380Y-93955152D02*
X103596190Y-93993247D01*
X103596190Y-93993247D02*
X103558095Y-94031342D01*
X103558095Y-94031342D02*
X103519999Y-94107533D01*
X103519999Y-94107533D02*
X103519999Y-94259914D01*
X103519999Y-94259914D02*
X103558095Y-94336104D01*
X103558095Y-94336104D02*
X103596190Y-94374200D01*
X103596190Y-94374200D02*
X103672380Y-94412295D01*
X103672380Y-94412295D02*
X103824761Y-94412295D01*
X103824761Y-94412295D02*
X103900952Y-94374200D01*
X103900952Y-94374200D02*
X103939047Y-94336104D01*
X103939047Y-94336104D02*
X103977142Y-94259914D01*
X103977142Y-94259914D02*
X103977142Y-94107533D01*
X103977142Y-94107533D02*
X103939047Y-94031342D01*
X103939047Y-94031342D02*
X103900952Y-93993247D01*
X103900952Y-93993247D02*
X103824761Y-93955152D01*
X104472381Y-93612295D02*
X104548571Y-93612295D01*
X104548571Y-93612295D02*
X104624762Y-93650390D01*
X104624762Y-93650390D02*
X104662857Y-93688485D01*
X104662857Y-93688485D02*
X104700952Y-93764676D01*
X104700952Y-93764676D02*
X104739047Y-93917057D01*
X104739047Y-93917057D02*
X104739047Y-94107533D01*
X104739047Y-94107533D02*
X104700952Y-94259914D01*
X104700952Y-94259914D02*
X104662857Y-94336104D01*
X104662857Y-94336104D02*
X104624762Y-94374200D01*
X104624762Y-94374200D02*
X104548571Y-94412295D01*
X104548571Y-94412295D02*
X104472381Y-94412295D01*
X104472381Y-94412295D02*
X104396190Y-94374200D01*
X104396190Y-94374200D02*
X104358095Y-94336104D01*
X104358095Y-94336104D02*
X104320000Y-94259914D01*
X104320000Y-94259914D02*
X104281904Y-94107533D01*
X104281904Y-94107533D02*
X104281904Y-93917057D01*
X104281904Y-93917057D02*
X104320000Y-93764676D01*
X104320000Y-93764676D02*
X104358095Y-93688485D01*
X104358095Y-93688485D02*
X104396190Y-93650390D01*
X104396190Y-93650390D02*
X104472381Y-93612295D01*
X105462857Y-93612295D02*
X105081905Y-93612295D01*
X105081905Y-93612295D02*
X105043809Y-93993247D01*
X105043809Y-93993247D02*
X105081905Y-93955152D01*
X105081905Y-93955152D02*
X105158095Y-93917057D01*
X105158095Y-93917057D02*
X105348571Y-93917057D01*
X105348571Y-93917057D02*
X105424762Y-93955152D01*
X105424762Y-93955152D02*
X105462857Y-93993247D01*
X105462857Y-93993247D02*
X105500952Y-94069438D01*
X105500952Y-94069438D02*
X105500952Y-94259914D01*
X105500952Y-94259914D02*
X105462857Y-94336104D01*
X105462857Y-94336104D02*
X105424762Y-94374200D01*
X105424762Y-94374200D02*
X105348571Y-94412295D01*
X105348571Y-94412295D02*
X105158095Y-94412295D01*
X105158095Y-94412295D02*
X105081905Y-94374200D01*
X105081905Y-94374200D02*
X105043809Y-94336104D01*
X105653334Y-94488485D02*
X106262857Y-94488485D01*
X106339048Y-93612295D02*
X106796191Y-93612295D01*
X106567619Y-94412295D02*
X106567619Y-93612295D01*
X107215239Y-93612295D02*
X107367620Y-93612295D01*
X107367620Y-93612295D02*
X107443810Y-93650390D01*
X107443810Y-93650390D02*
X107520001Y-93726580D01*
X107520001Y-93726580D02*
X107558096Y-93878961D01*
X107558096Y-93878961D02*
X107558096Y-94145628D01*
X107558096Y-94145628D02*
X107520001Y-94298009D01*
X107520001Y-94298009D02*
X107443810Y-94374200D01*
X107443810Y-94374200D02*
X107367620Y-94412295D01*
X107367620Y-94412295D02*
X107215239Y-94412295D01*
X107215239Y-94412295D02*
X107139048Y-94374200D01*
X107139048Y-94374200D02*
X107062858Y-94298009D01*
X107062858Y-94298009D02*
X107024762Y-94145628D01*
X107024762Y-94145628D02*
X107024762Y-93878961D01*
X107024762Y-93878961D02*
X107062858Y-93726580D01*
X107062858Y-93726580D02*
X107139048Y-93650390D01*
X107139048Y-93650390D02*
X107215239Y-93612295D01*
X107862857Y-93688485D02*
X107900953Y-93650390D01*
X107900953Y-93650390D02*
X107977143Y-93612295D01*
X107977143Y-93612295D02*
X108167619Y-93612295D01*
X108167619Y-93612295D02*
X108243810Y-93650390D01*
X108243810Y-93650390D02*
X108281905Y-93688485D01*
X108281905Y-93688485D02*
X108320000Y-93764676D01*
X108320000Y-93764676D02*
X108320000Y-93840866D01*
X108320000Y-93840866D02*
X108281905Y-93955152D01*
X108281905Y-93955152D02*
X107824762Y-94412295D01*
X107824762Y-94412295D02*
X108320000Y-94412295D01*
X108624762Y-93688485D02*
X108662858Y-93650390D01*
X108662858Y-93650390D02*
X108739048Y-93612295D01*
X108739048Y-93612295D02*
X108929524Y-93612295D01*
X108929524Y-93612295D02*
X109005715Y-93650390D01*
X109005715Y-93650390D02*
X109043810Y-93688485D01*
X109043810Y-93688485D02*
X109081905Y-93764676D01*
X109081905Y-93764676D02*
X109081905Y-93840866D01*
X109081905Y-93840866D02*
X109043810Y-93955152D01*
X109043810Y-93955152D02*
X108586667Y-94412295D01*
X108586667Y-94412295D02*
X109081905Y-94412295D01*
X109577144Y-93612295D02*
X109653334Y-93612295D01*
X109653334Y-93612295D02*
X109729525Y-93650390D01*
X109729525Y-93650390D02*
X109767620Y-93688485D01*
X109767620Y-93688485D02*
X109805715Y-93764676D01*
X109805715Y-93764676D02*
X109843810Y-93917057D01*
X109843810Y-93917057D02*
X109843810Y-94107533D01*
X109843810Y-94107533D02*
X109805715Y-94259914D01*
X109805715Y-94259914D02*
X109767620Y-94336104D01*
X109767620Y-94336104D02*
X109729525Y-94374200D01*
X109729525Y-94374200D02*
X109653334Y-94412295D01*
X109653334Y-94412295D02*
X109577144Y-94412295D01*
X109577144Y-94412295D02*
X109500953Y-94374200D01*
X109500953Y-94374200D02*
X109462858Y-94336104D01*
X109462858Y-94336104D02*
X109424763Y-94259914D01*
X109424763Y-94259914D02*
X109386667Y-94107533D01*
X109386667Y-94107533D02*
X109386667Y-93917057D01*
X109386667Y-93917057D02*
X109424763Y-93764676D01*
X109424763Y-93764676D02*
X109462858Y-93688485D01*
X109462858Y-93688485D02*
X109500953Y-93650390D01*
X109500953Y-93650390D02*
X109577144Y-93612295D01*
X112180475Y-91614200D02*
X112294761Y-91652295D01*
X112294761Y-91652295D02*
X112485237Y-91652295D01*
X112485237Y-91652295D02*
X112561428Y-91614200D01*
X112561428Y-91614200D02*
X112599523Y-91576104D01*
X112599523Y-91576104D02*
X112637618Y-91499914D01*
X112637618Y-91499914D02*
X112637618Y-91423723D01*
X112637618Y-91423723D02*
X112599523Y-91347533D01*
X112599523Y-91347533D02*
X112561428Y-91309438D01*
X112561428Y-91309438D02*
X112485237Y-91271342D01*
X112485237Y-91271342D02*
X112332856Y-91233247D01*
X112332856Y-91233247D02*
X112256666Y-91195152D01*
X112256666Y-91195152D02*
X112218571Y-91157057D01*
X112218571Y-91157057D02*
X112180475Y-91080866D01*
X112180475Y-91080866D02*
X112180475Y-91004676D01*
X112180475Y-91004676D02*
X112218571Y-90928485D01*
X112218571Y-90928485D02*
X112256666Y-90890390D01*
X112256666Y-90890390D02*
X112332856Y-90852295D01*
X112332856Y-90852295D02*
X112523333Y-90852295D01*
X112523333Y-90852295D02*
X112637618Y-90890390D01*
X113399523Y-91652295D02*
X112942380Y-91652295D01*
X113170952Y-91652295D02*
X113170952Y-90852295D01*
X113170952Y-90852295D02*
X113094761Y-90966580D01*
X113094761Y-90966580D02*
X113018571Y-91042771D01*
X113018571Y-91042771D02*
X112942380Y-91080866D01*
X116194761Y-85003247D02*
X116461427Y-85003247D01*
X116575713Y-85422295D02*
X116194761Y-85422295D01*
X116194761Y-85422295D02*
X116194761Y-84622295D01*
X116194761Y-84622295D02*
X116575713Y-84622295D01*
X117337618Y-84660390D02*
X117261428Y-84622295D01*
X117261428Y-84622295D02*
X117147142Y-84622295D01*
X117147142Y-84622295D02*
X117032856Y-84660390D01*
X117032856Y-84660390D02*
X116956666Y-84736580D01*
X116956666Y-84736580D02*
X116918571Y-84812771D01*
X116918571Y-84812771D02*
X116880475Y-84965152D01*
X116880475Y-84965152D02*
X116880475Y-85079438D01*
X116880475Y-85079438D02*
X116918571Y-85231819D01*
X116918571Y-85231819D02*
X116956666Y-85308009D01*
X116956666Y-85308009D02*
X117032856Y-85384200D01*
X117032856Y-85384200D02*
X117147142Y-85422295D01*
X117147142Y-85422295D02*
X117223333Y-85422295D01*
X117223333Y-85422295D02*
X117337618Y-85384200D01*
X117337618Y-85384200D02*
X117375714Y-85346104D01*
X117375714Y-85346104D02*
X117375714Y-85079438D01*
X117375714Y-85079438D02*
X117223333Y-85079438D01*
X118137618Y-85422295D02*
X117680475Y-85422295D01*
X117909047Y-85422295D02*
X117909047Y-84622295D01*
X117909047Y-84622295D02*
X117832856Y-84736580D01*
X117832856Y-84736580D02*
X117756666Y-84812771D01*
X117756666Y-84812771D02*
X117680475Y-84850866D01*
X118442380Y-84698485D02*
X118480476Y-84660390D01*
X118480476Y-84660390D02*
X118556666Y-84622295D01*
X118556666Y-84622295D02*
X118747142Y-84622295D01*
X118747142Y-84622295D02*
X118823333Y-84660390D01*
X118823333Y-84660390D02*
X118861428Y-84698485D01*
X118861428Y-84698485D02*
X118899523Y-84774676D01*
X118899523Y-84774676D02*
X118899523Y-84850866D01*
X118899523Y-84850866D02*
X118861428Y-84965152D01*
X118861428Y-84965152D02*
X118404285Y-85422295D01*
X118404285Y-85422295D02*
X118899523Y-85422295D01*
X119661428Y-85422295D02*
X119204285Y-85422295D01*
X119432857Y-85422295D02*
X119432857Y-84622295D01*
X119432857Y-84622295D02*
X119356666Y-84736580D01*
X119356666Y-84736580D02*
X119280476Y-84812771D01*
X119280476Y-84812771D02*
X119204285Y-84850866D01*
X120118571Y-84965152D02*
X120042381Y-84927057D01*
X120042381Y-84927057D02*
X120004286Y-84888961D01*
X120004286Y-84888961D02*
X119966190Y-84812771D01*
X119966190Y-84812771D02*
X119966190Y-84774676D01*
X119966190Y-84774676D02*
X120004286Y-84698485D01*
X120004286Y-84698485D02*
X120042381Y-84660390D01*
X120042381Y-84660390D02*
X120118571Y-84622295D01*
X120118571Y-84622295D02*
X120270952Y-84622295D01*
X120270952Y-84622295D02*
X120347143Y-84660390D01*
X120347143Y-84660390D02*
X120385238Y-84698485D01*
X120385238Y-84698485D02*
X120423333Y-84774676D01*
X120423333Y-84774676D02*
X120423333Y-84812771D01*
X120423333Y-84812771D02*
X120385238Y-84888961D01*
X120385238Y-84888961D02*
X120347143Y-84927057D01*
X120347143Y-84927057D02*
X120270952Y-84965152D01*
X120270952Y-84965152D02*
X120118571Y-84965152D01*
X120118571Y-84965152D02*
X120042381Y-85003247D01*
X120042381Y-85003247D02*
X120004286Y-85041342D01*
X120004286Y-85041342D02*
X119966190Y-85117533D01*
X119966190Y-85117533D02*
X119966190Y-85269914D01*
X119966190Y-85269914D02*
X120004286Y-85346104D01*
X120004286Y-85346104D02*
X120042381Y-85384200D01*
X120042381Y-85384200D02*
X120118571Y-85422295D01*
X120118571Y-85422295D02*
X120270952Y-85422295D01*
X120270952Y-85422295D02*
X120347143Y-85384200D01*
X120347143Y-85384200D02*
X120385238Y-85346104D01*
X120385238Y-85346104D02*
X120423333Y-85269914D01*
X120423333Y-85269914D02*
X120423333Y-85117533D01*
X120423333Y-85117533D02*
X120385238Y-85041342D01*
X120385238Y-85041342D02*
X120347143Y-85003247D01*
X120347143Y-85003247D02*
X120270952Y-84965152D01*
X121149133Y-116129095D02*
X121149133Y-116700523D01*
X121149133Y-116700523D02*
X121111038Y-116814809D01*
X121111038Y-116814809D02*
X121034847Y-116891000D01*
X121034847Y-116891000D02*
X120920562Y-116929095D01*
X120920562Y-116929095D02*
X120844371Y-116929095D01*
X121453895Y-116129095D02*
X121987229Y-116129095D01*
X121987229Y-116129095D02*
X121644371Y-116929095D01*
%TO.C,J2*%
D12*
X128280000Y-123260000D02*
X128280000Y-125910000D01*
X125520000Y-125910000D02*
X128280000Y-125910000D01*
X125520000Y-123260000D02*
X128280000Y-123260000D01*
X125520000Y-123260000D02*
X125520000Y-125910000D01*
X125520000Y-121990000D02*
X125520000Y-120610000D01*
X125520000Y-120610000D02*
X126900000Y-120610000D01*
%TO.C,J1*%
X128380000Y-77470000D02*
X128380000Y-80120000D01*
X125620000Y-80120000D02*
X128380000Y-80120000D01*
X125620000Y-77470000D02*
X128380000Y-77470000D01*
X125620000Y-77470000D02*
X125620000Y-80120000D01*
X125620000Y-76200000D02*
X125620000Y-74820000D01*
X125620000Y-74820000D02*
X127000000Y-74820000D01*
%TO.C,C3*%
X110420000Y-113175000D02*
X110420000Y-111645000D01*
X112260000Y-111645000D02*
X112260000Y-113175000D01*
%TO.C,J3*%
X99880000Y-78780000D02*
X99880000Y-77400000D01*
X101260000Y-78780000D02*
X99880000Y-78780000D01*
X102530000Y-76020000D02*
X107720000Y-76020000D01*
X102530000Y-78780000D02*
X102530000Y-76020000D01*
X102530000Y-78780000D02*
X107720000Y-78780000D01*
X107720000Y-78780000D02*
X107720000Y-76020000D01*
%TO.C,R3*%
X116440000Y-113614200D02*
X117390000Y-113614200D01*
X122180000Y-113614200D02*
X121230000Y-113614200D01*
X117390000Y-112694200D02*
X121230000Y-112694200D01*
X121230000Y-114534200D01*
X117390000Y-114534200D01*
X117390000Y-112694200D01*
%TO.C,C1*%
X106285000Y-82680000D02*
X107815000Y-82680000D01*
X107815000Y-84520000D02*
X106285000Y-84520000D01*
%TO.C,C2*%
X100975000Y-82610000D02*
X102505000Y-82610000D01*
X102505000Y-84450000D02*
X100975000Y-84450000D01*
%TO.C,D1*%
X117890000Y-100005000D02*
X117890000Y-103095000D01*
X117890000Y-100005170D02*
G75*
G02*
X123440000Y-101550000I2560000J-1544830D01*
G01*
X123440000Y-101550000D02*
G75*
G02*
X117890000Y-103094830I-2990000J0D01*
G01*
X122950000Y-101550000D02*
G75*
G02*
X117950000Y-101550000I-2500000J0D01*
G01*
X117950000Y-101550000D02*
G75*
G02*
X122950000Y-101550000I2500000J0D01*
G01*
%TO.C,R2*%
X116320000Y-94180000D02*
X117270000Y-94180000D01*
X122060000Y-94180000D02*
X121110000Y-94180000D01*
X117270000Y-93260000D02*
X121110000Y-93260000D01*
X121110000Y-95100000D01*
X117270000Y-95100000D01*
X117270000Y-93260000D01*
%TO.C,U2*%
X98950000Y-110030000D02*
X109170000Y-110030000D01*
X98950000Y-111410000D02*
X109170000Y-111410000D01*
X98950000Y-114650000D02*
X98950000Y-110030000D01*
X102210000Y-110030000D02*
X102210000Y-111410000D01*
X105910000Y-110030000D02*
X105910000Y-111410000D01*
X109170000Y-110030000D02*
X109170000Y-114650000D01*
X109170000Y-114650000D02*
X98950000Y-114650000D01*
%TO.C,J6*%
X100090000Y-96490000D02*
X114790000Y-96490000D01*
X100090000Y-105690000D02*
X100090000Y-96490000D01*
X108890000Y-105690000D02*
X100090000Y-105690000D01*
X113940000Y-96290000D02*
X114990000Y-96290000D01*
X114790000Y-96490000D02*
X114790000Y-99090000D01*
X114790000Y-102990000D02*
X114790000Y-105690000D01*
X114790000Y-105690000D02*
X112890000Y-105690000D01*
X114990000Y-97340000D02*
X114990000Y-96290000D01*
%TO.C,J4*%
X99940000Y-123680000D02*
X99940000Y-122300000D01*
X101320000Y-123680000D02*
X99940000Y-123680000D01*
X102590000Y-120920000D02*
X107780000Y-120920000D01*
X102590000Y-123680000D02*
X102590000Y-120920000D01*
X102590000Y-123680000D02*
X107780000Y-123680000D01*
X107780000Y-123680000D02*
X107780000Y-120920000D01*
%TO.C,J5*%
X111945600Y-74733800D02*
X119265600Y-74733800D01*
X111945600Y-82773800D02*
X111945600Y-74733800D01*
X112753600Y-78153800D02*
X111945600Y-78153800D01*
X112753600Y-79153800D02*
X111945600Y-79153800D01*
X114022600Y-76853800D02*
X111945600Y-76853800D01*
X117685600Y-76853800D02*
X115108600Y-76853800D01*
X117685600Y-78153800D02*
X116377600Y-78153800D01*
X117685600Y-79153800D02*
X116377600Y-79153800D01*
X119865600Y-74733800D02*
X122685600Y-74733800D01*
X122685600Y-74733800D02*
X122685600Y-82773800D01*
X122685600Y-76853800D02*
X121445600Y-76853800D01*
X122685600Y-78153800D02*
X121445600Y-78153800D01*
X122685600Y-79153800D02*
X121445600Y-79153800D01*
X122685600Y-82773800D02*
X111945600Y-82773800D01*
X119565600Y-74733800D02*
X119125600Y-74123800D01*
X120005600Y-74123800D01*
X119565600Y-74733800D01*
G36*
X119565600Y-74733800D02*
G01*
X119125600Y-74123800D01*
X120005600Y-74123800D01*
X119565600Y-74733800D01*
G37*
%TO.C,R1*%
X116430000Y-108800000D02*
X117380000Y-108800000D01*
X122170000Y-108800000D02*
X121220000Y-108800000D01*
X117380000Y-107880000D02*
X121220000Y-107880000D01*
X121220000Y-109720000D01*
X117380000Y-109720000D01*
X117380000Y-107880000D01*
%TO.C,U1*%
X100410000Y-87080000D02*
X110630000Y-87080000D01*
X100410000Y-91700000D02*
X100410000Y-87080000D01*
X103670000Y-91700000D02*
X103670000Y-90320000D01*
X107370000Y-91700000D02*
X107370000Y-90320000D01*
X110630000Y-87080000D02*
X110630000Y-91700000D01*
X110630000Y-90320000D02*
X100410000Y-90320000D01*
X110630000Y-91700000D02*
X100410000Y-91700000D01*
%TO.C,S1*%
D13*
X112100000Y-86100000D02*
X112100000Y-86600000D01*
X112100000Y-86100000D02*
X112600000Y-86100000D01*
X112100000Y-90300000D02*
X112100000Y-89800000D01*
X112100000Y-90300000D02*
X112600000Y-90300000D01*
X124000000Y-86100000D02*
X123500000Y-86100000D01*
X124000000Y-86100000D02*
X124000000Y-86600000D01*
X124000000Y-90300000D02*
X123500000Y-90300000D01*
X124000000Y-90300000D02*
X124000000Y-89800000D01*
%TO.C,J7*%
D12*
X111340000Y-117730000D02*
X122080000Y-117730000D01*
X111340000Y-121350000D02*
X112580000Y-121350000D01*
X111340000Y-122350000D02*
X112580000Y-122350000D01*
X111340000Y-123650000D02*
X112580000Y-123650000D01*
X111340000Y-125770000D02*
X111340000Y-117730000D01*
X114160000Y-125770000D02*
X111340000Y-125770000D01*
X116340000Y-121350000D02*
X117648000Y-121350000D01*
X116340000Y-122350000D02*
X117648000Y-122350000D01*
X116340000Y-123650000D02*
X118917000Y-123650000D01*
X120003000Y-123650000D02*
X122080000Y-123650000D01*
X121272000Y-121350000D02*
X122080000Y-121350000D01*
X121272000Y-122350000D02*
X122080000Y-122350000D01*
X122080000Y-117730000D02*
X122080000Y-125770000D01*
X122080000Y-125770000D02*
X114760000Y-125770000D01*
X114900000Y-126380000D02*
X114020000Y-126380000D01*
X114460000Y-125770000D01*
X114900000Y-126380000D01*
G36*
X114900000Y-126380000D02*
G01*
X114020000Y-126380000D01*
X114460000Y-125770000D01*
X114900000Y-126380000D01*
G37*
%TD*%
M02*
