%TF.GenerationSoftware,KiCad,Pcbnew,10.0.0*%
%TF.CreationDate,2026-04-21T05:52:01+05:30*%
%TF.ProjectId,Bread Board Power Supply,42726561-6420-4426-9f61-726420506f77,1*%
%TF.SameCoordinates,Original*%
%TF.FileFunction,Legend,Bot*%
%TF.FilePolarity,Positive*%
%FSLAX46Y46*%
G04 Gerber Fmt 4.6, Leading zero omitted, Abs format (unit mm)*
G04 Created by KiCad (PCBNEW 10.0.0) date 2026-04-21 05:52:01*
%MOMM*%
%LPD*%
G01*
G04 APERTURE LIST*
%ADD10C,0.400000*%
%ADD11C,0.200000*%
%ADD12C,0.010000*%
G04 APERTURE END LIST*
D10*
X105450000Y-107120000D02*
G75*
G02*
X100496416Y-107120000I-2476792J0D01*
G01*
X100496416Y-107120000D02*
G75*
G02*
X105450000Y-107120000I2476792J0D01*
G01*
D11*
X104843183Y-106647219D02*
X104509850Y-107647219D01*
X104509850Y-107647219D02*
X104176517Y-106647219D01*
X103652707Y-106647219D02*
X103557469Y-106647219D01*
X103557469Y-106647219D02*
X103462231Y-106694838D01*
X103462231Y-106694838D02*
X103414612Y-106742457D01*
X103414612Y-106742457D02*
X103366993Y-106837695D01*
X103366993Y-106837695D02*
X103319374Y-107028171D01*
X103319374Y-107028171D02*
X103319374Y-107266266D01*
X103319374Y-107266266D02*
X103366993Y-107456742D01*
X103366993Y-107456742D02*
X103414612Y-107551980D01*
X103414612Y-107551980D02*
X103462231Y-107599600D01*
X103462231Y-107599600D02*
X103557469Y-107647219D01*
X103557469Y-107647219D02*
X103652707Y-107647219D01*
X103652707Y-107647219D02*
X103747945Y-107599600D01*
X103747945Y-107599600D02*
X103795564Y-107551980D01*
X103795564Y-107551980D02*
X103843183Y-107456742D01*
X103843183Y-107456742D02*
X103890802Y-107266266D01*
X103890802Y-107266266D02*
X103890802Y-107028171D01*
X103890802Y-107028171D02*
X103843183Y-106837695D01*
X103843183Y-106837695D02*
X103795564Y-106742457D01*
X103795564Y-106742457D02*
X103747945Y-106694838D01*
X103747945Y-106694838D02*
X103652707Y-106647219D01*
X102890802Y-107551980D02*
X102843183Y-107599600D01*
X102843183Y-107599600D02*
X102890802Y-107647219D01*
X102890802Y-107647219D02*
X102938421Y-107599600D01*
X102938421Y-107599600D02*
X102890802Y-107551980D01*
X102890802Y-107551980D02*
X102890802Y-107647219D01*
X101890803Y-107647219D02*
X102462231Y-107647219D01*
X102176517Y-107647219D02*
X102176517Y-106647219D01*
X102176517Y-106647219D02*
X102271755Y-106790076D01*
X102271755Y-106790076D02*
X102366993Y-106885314D01*
X102366993Y-106885314D02*
X102462231Y-106932933D01*
X101271755Y-106647219D02*
X101176517Y-106647219D01*
X101176517Y-106647219D02*
X101081279Y-106694838D01*
X101081279Y-106694838D02*
X101033660Y-106742457D01*
X101033660Y-106742457D02*
X100986041Y-106837695D01*
X100986041Y-106837695D02*
X100938422Y-107028171D01*
X100938422Y-107028171D02*
X100938422Y-107266266D01*
X100938422Y-107266266D02*
X100986041Y-107456742D01*
X100986041Y-107456742D02*
X101033660Y-107551980D01*
X101033660Y-107551980D02*
X101081279Y-107599600D01*
X101081279Y-107599600D02*
X101176517Y-107647219D01*
X101176517Y-107647219D02*
X101271755Y-107647219D01*
X101271755Y-107647219D02*
X101366993Y-107599600D01*
X101366993Y-107599600D02*
X101414612Y-107551980D01*
X101414612Y-107551980D02*
X101462231Y-107456742D01*
X101462231Y-107456742D02*
X101509850Y-107266266D01*
X101509850Y-107266266D02*
X101509850Y-107028171D01*
X101509850Y-107028171D02*
X101462231Y-106837695D01*
X101462231Y-106837695D02*
X101414612Y-106742457D01*
X101414612Y-106742457D02*
X101366993Y-106694838D01*
X101366993Y-106694838D02*
X101271755Y-106647219D01*
X111284285Y-94627275D02*
X111284285Y-93627275D01*
X111284285Y-93627275D02*
X111046190Y-93627275D01*
X111046190Y-93627275D02*
X110903333Y-93674894D01*
X110903333Y-93674894D02*
X110808095Y-93770132D01*
X110808095Y-93770132D02*
X110760476Y-93865370D01*
X110760476Y-93865370D02*
X110712857Y-94055846D01*
X110712857Y-94055846D02*
X110712857Y-94198703D01*
X110712857Y-94198703D02*
X110760476Y-94389179D01*
X110760476Y-94389179D02*
X110808095Y-94484417D01*
X110808095Y-94484417D02*
X110903333Y-94579656D01*
X110903333Y-94579656D02*
X111046190Y-94627275D01*
X111046190Y-94627275D02*
X111284285Y-94627275D01*
X110284285Y-94103465D02*
X109950952Y-94103465D01*
X109808095Y-94627275D02*
X110284285Y-94627275D01*
X110284285Y-94627275D02*
X110284285Y-93627275D01*
X110284285Y-93627275D02*
X109808095Y-93627275D01*
X109427142Y-94579656D02*
X109284285Y-94627275D01*
X109284285Y-94627275D02*
X109046190Y-94627275D01*
X109046190Y-94627275D02*
X108950952Y-94579656D01*
X108950952Y-94579656D02*
X108903333Y-94532036D01*
X108903333Y-94532036D02*
X108855714Y-94436798D01*
X108855714Y-94436798D02*
X108855714Y-94341560D01*
X108855714Y-94341560D02*
X108903333Y-94246322D01*
X108903333Y-94246322D02*
X108950952Y-94198703D01*
X108950952Y-94198703D02*
X109046190Y-94151084D01*
X109046190Y-94151084D02*
X109236666Y-94103465D01*
X109236666Y-94103465D02*
X109331904Y-94055846D01*
X109331904Y-94055846D02*
X109379523Y-94008227D01*
X109379523Y-94008227D02*
X109427142Y-93912989D01*
X109427142Y-93912989D02*
X109427142Y-93817751D01*
X109427142Y-93817751D02*
X109379523Y-93722513D01*
X109379523Y-93722513D02*
X109331904Y-93674894D01*
X109331904Y-93674894D02*
X109236666Y-93627275D01*
X109236666Y-93627275D02*
X108998571Y-93627275D01*
X108998571Y-93627275D02*
X108855714Y-93674894D01*
X108427142Y-94627275D02*
X108427142Y-93627275D01*
X107427143Y-93674894D02*
X107522381Y-93627275D01*
X107522381Y-93627275D02*
X107665238Y-93627275D01*
X107665238Y-93627275D02*
X107808095Y-93674894D01*
X107808095Y-93674894D02*
X107903333Y-93770132D01*
X107903333Y-93770132D02*
X107950952Y-93865370D01*
X107950952Y-93865370D02*
X107998571Y-94055846D01*
X107998571Y-94055846D02*
X107998571Y-94198703D01*
X107998571Y-94198703D02*
X107950952Y-94389179D01*
X107950952Y-94389179D02*
X107903333Y-94484417D01*
X107903333Y-94484417D02*
X107808095Y-94579656D01*
X107808095Y-94579656D02*
X107665238Y-94627275D01*
X107665238Y-94627275D02*
X107570000Y-94627275D01*
X107570000Y-94627275D02*
X107427143Y-94579656D01*
X107427143Y-94579656D02*
X107379524Y-94532036D01*
X107379524Y-94532036D02*
X107379524Y-94198703D01*
X107379524Y-94198703D02*
X107570000Y-94198703D01*
X106950952Y-94627275D02*
X106950952Y-93627275D01*
X106950952Y-93627275D02*
X106379524Y-94627275D01*
X106379524Y-94627275D02*
X106379524Y-93627275D01*
X105903333Y-94103465D02*
X105570000Y-94103465D01*
X105427143Y-94627275D02*
X105903333Y-94627275D01*
X105903333Y-94627275D02*
X105903333Y-93627275D01*
X105903333Y-93627275D02*
X105427143Y-93627275D01*
X104998571Y-94627275D02*
X104998571Y-93627275D01*
X104998571Y-93627275D02*
X104760476Y-93627275D01*
X104760476Y-93627275D02*
X104617619Y-93674894D01*
X104617619Y-93674894D02*
X104522381Y-93770132D01*
X104522381Y-93770132D02*
X104474762Y-93865370D01*
X104474762Y-93865370D02*
X104427143Y-94055846D01*
X104427143Y-94055846D02*
X104427143Y-94198703D01*
X104427143Y-94198703D02*
X104474762Y-94389179D01*
X104474762Y-94389179D02*
X104522381Y-94484417D01*
X104522381Y-94484417D02*
X104617619Y-94579656D01*
X104617619Y-94579656D02*
X104760476Y-94627275D01*
X104760476Y-94627275D02*
X104998571Y-94627275D01*
X102903333Y-94103465D02*
X102760476Y-94151084D01*
X102760476Y-94151084D02*
X102712857Y-94198703D01*
X102712857Y-94198703D02*
X102665238Y-94293941D01*
X102665238Y-94293941D02*
X102665238Y-94436798D01*
X102665238Y-94436798D02*
X102712857Y-94532036D01*
X102712857Y-94532036D02*
X102760476Y-94579656D01*
X102760476Y-94579656D02*
X102855714Y-94627275D01*
X102855714Y-94627275D02*
X103236666Y-94627275D01*
X103236666Y-94627275D02*
X103236666Y-93627275D01*
X103236666Y-93627275D02*
X102903333Y-93627275D01*
X102903333Y-93627275D02*
X102808095Y-93674894D01*
X102808095Y-93674894D02*
X102760476Y-93722513D01*
X102760476Y-93722513D02*
X102712857Y-93817751D01*
X102712857Y-93817751D02*
X102712857Y-93912989D01*
X102712857Y-93912989D02*
X102760476Y-94008227D01*
X102760476Y-94008227D02*
X102808095Y-94055846D01*
X102808095Y-94055846D02*
X102903333Y-94103465D01*
X102903333Y-94103465D02*
X103236666Y-94103465D01*
X102046190Y-94151084D02*
X102046190Y-94627275D01*
X102379523Y-93627275D02*
X102046190Y-94151084D01*
X102046190Y-94151084D02*
X101712857Y-93627275D01*
X109689047Y-96189600D02*
X109546190Y-96237219D01*
X109546190Y-96237219D02*
X109308095Y-96237219D01*
X109308095Y-96237219D02*
X109212857Y-96189600D01*
X109212857Y-96189600D02*
X109165238Y-96141980D01*
X109165238Y-96141980D02*
X109117619Y-96046742D01*
X109117619Y-96046742D02*
X109117619Y-95951504D01*
X109117619Y-95951504D02*
X109165238Y-95856266D01*
X109165238Y-95856266D02*
X109212857Y-95808647D01*
X109212857Y-95808647D02*
X109308095Y-95761028D01*
X109308095Y-95761028D02*
X109498571Y-95713409D01*
X109498571Y-95713409D02*
X109593809Y-95665790D01*
X109593809Y-95665790D02*
X109641428Y-95618171D01*
X109641428Y-95618171D02*
X109689047Y-95522933D01*
X109689047Y-95522933D02*
X109689047Y-95427695D01*
X109689047Y-95427695D02*
X109641428Y-95332457D01*
X109641428Y-95332457D02*
X109593809Y-95284838D01*
X109593809Y-95284838D02*
X109498571Y-95237219D01*
X109498571Y-95237219D02*
X109260476Y-95237219D01*
X109260476Y-95237219D02*
X109117619Y-95284838D01*
X108831904Y-95237219D02*
X108260476Y-95237219D01*
X108546190Y-96237219D02*
X108546190Y-95237219D01*
X107927142Y-95713409D02*
X107593809Y-95713409D01*
X107450952Y-96237219D02*
X107927142Y-96237219D01*
X107927142Y-96237219D02*
X107927142Y-95237219D01*
X107927142Y-95237219D02*
X107450952Y-95237219D01*
X107022380Y-96237219D02*
X107022380Y-95237219D01*
X107022380Y-95237219D02*
X106641428Y-95237219D01*
X106641428Y-95237219D02*
X106546190Y-95284838D01*
X106546190Y-95284838D02*
X106498571Y-95332457D01*
X106498571Y-95332457D02*
X106450952Y-95427695D01*
X106450952Y-95427695D02*
X106450952Y-95570552D01*
X106450952Y-95570552D02*
X106498571Y-95665790D01*
X106498571Y-95665790D02*
X106546190Y-95713409D01*
X106546190Y-95713409D02*
X106641428Y-95761028D01*
X106641428Y-95761028D02*
X107022380Y-95761028D01*
X106022380Y-96237219D02*
X106022380Y-95237219D01*
X106022380Y-95713409D02*
X105450952Y-95713409D01*
X105450952Y-96237219D02*
X105450952Y-95237219D01*
X104974761Y-95713409D02*
X104641428Y-95713409D01*
X104498571Y-96237219D02*
X104974761Y-96237219D01*
X104974761Y-96237219D02*
X104974761Y-95237219D01*
X104974761Y-95237219D02*
X104498571Y-95237219D01*
X104069999Y-96237219D02*
X104069999Y-95237219D01*
X104069999Y-95237219D02*
X103498571Y-96237219D01*
X103498571Y-96237219D02*
X103498571Y-95237219D01*
X121652857Y-116613465D02*
X121510000Y-116661084D01*
X121510000Y-116661084D02*
X121462381Y-116708703D01*
X121462381Y-116708703D02*
X121414762Y-116803941D01*
X121414762Y-116803941D02*
X121414762Y-116946798D01*
X121414762Y-116946798D02*
X121462381Y-117042036D01*
X121462381Y-117042036D02*
X121510000Y-117089656D01*
X121510000Y-117089656D02*
X121605238Y-117137275D01*
X121605238Y-117137275D02*
X121986190Y-117137275D01*
X121986190Y-117137275D02*
X121986190Y-116137275D01*
X121986190Y-116137275D02*
X121652857Y-116137275D01*
X121652857Y-116137275D02*
X121557619Y-116184894D01*
X121557619Y-116184894D02*
X121510000Y-116232513D01*
X121510000Y-116232513D02*
X121462381Y-116327751D01*
X121462381Y-116327751D02*
X121462381Y-116422989D01*
X121462381Y-116422989D02*
X121510000Y-116518227D01*
X121510000Y-116518227D02*
X121557619Y-116565846D01*
X121557619Y-116565846D02*
X121652857Y-116613465D01*
X121652857Y-116613465D02*
X121986190Y-116613465D01*
X120414762Y-117137275D02*
X120748095Y-116661084D01*
X120986190Y-117137275D02*
X120986190Y-116137275D01*
X120986190Y-116137275D02*
X120605238Y-116137275D01*
X120605238Y-116137275D02*
X120510000Y-116184894D01*
X120510000Y-116184894D02*
X120462381Y-116232513D01*
X120462381Y-116232513D02*
X120414762Y-116327751D01*
X120414762Y-116327751D02*
X120414762Y-116470608D01*
X120414762Y-116470608D02*
X120462381Y-116565846D01*
X120462381Y-116565846D02*
X120510000Y-116613465D01*
X120510000Y-116613465D02*
X120605238Y-116661084D01*
X120605238Y-116661084D02*
X120986190Y-116661084D01*
X119986190Y-116613465D02*
X119652857Y-116613465D01*
X119510000Y-117137275D02*
X119986190Y-117137275D01*
X119986190Y-117137275D02*
X119986190Y-116137275D01*
X119986190Y-116137275D02*
X119510000Y-116137275D01*
X119129047Y-116851560D02*
X118652857Y-116851560D01*
X119224285Y-117137275D02*
X118890952Y-116137275D01*
X118890952Y-116137275D02*
X118557619Y-117137275D01*
X118224285Y-117137275D02*
X118224285Y-116137275D01*
X118224285Y-116137275D02*
X117986190Y-116137275D01*
X117986190Y-116137275D02*
X117843333Y-116184894D01*
X117843333Y-116184894D02*
X117748095Y-116280132D01*
X117748095Y-116280132D02*
X117700476Y-116375370D01*
X117700476Y-116375370D02*
X117652857Y-116565846D01*
X117652857Y-116565846D02*
X117652857Y-116708703D01*
X117652857Y-116708703D02*
X117700476Y-116899179D01*
X117700476Y-116899179D02*
X117748095Y-116994417D01*
X117748095Y-116994417D02*
X117843333Y-117089656D01*
X117843333Y-117089656D02*
X117986190Y-117137275D01*
X117986190Y-117137275D02*
X118224285Y-117137275D01*
X116129047Y-116613465D02*
X115986190Y-116661084D01*
X115986190Y-116661084D02*
X115938571Y-116708703D01*
X115938571Y-116708703D02*
X115890952Y-116803941D01*
X115890952Y-116803941D02*
X115890952Y-116946798D01*
X115890952Y-116946798D02*
X115938571Y-117042036D01*
X115938571Y-117042036D02*
X115986190Y-117089656D01*
X115986190Y-117089656D02*
X116081428Y-117137275D01*
X116081428Y-117137275D02*
X116462380Y-117137275D01*
X116462380Y-117137275D02*
X116462380Y-116137275D01*
X116462380Y-116137275D02*
X116129047Y-116137275D01*
X116129047Y-116137275D02*
X116033809Y-116184894D01*
X116033809Y-116184894D02*
X115986190Y-116232513D01*
X115986190Y-116232513D02*
X115938571Y-116327751D01*
X115938571Y-116327751D02*
X115938571Y-116422989D01*
X115938571Y-116422989D02*
X115986190Y-116518227D01*
X115986190Y-116518227D02*
X116033809Y-116565846D01*
X116033809Y-116565846D02*
X116129047Y-116613465D01*
X116129047Y-116613465D02*
X116462380Y-116613465D01*
X115271904Y-116137275D02*
X115081428Y-116137275D01*
X115081428Y-116137275D02*
X114986190Y-116184894D01*
X114986190Y-116184894D02*
X114890952Y-116280132D01*
X114890952Y-116280132D02*
X114843333Y-116470608D01*
X114843333Y-116470608D02*
X114843333Y-116803941D01*
X114843333Y-116803941D02*
X114890952Y-116994417D01*
X114890952Y-116994417D02*
X114986190Y-117089656D01*
X114986190Y-117089656D02*
X115081428Y-117137275D01*
X115081428Y-117137275D02*
X115271904Y-117137275D01*
X115271904Y-117137275D02*
X115367142Y-117089656D01*
X115367142Y-117089656D02*
X115462380Y-116994417D01*
X115462380Y-116994417D02*
X115509999Y-116803941D01*
X115509999Y-116803941D02*
X115509999Y-116470608D01*
X115509999Y-116470608D02*
X115462380Y-116280132D01*
X115462380Y-116280132D02*
X115367142Y-116184894D01*
X115367142Y-116184894D02*
X115271904Y-116137275D01*
X114462380Y-116851560D02*
X113986190Y-116851560D01*
X114557618Y-117137275D02*
X114224285Y-116137275D01*
X114224285Y-116137275D02*
X113890952Y-117137275D01*
X112986190Y-117137275D02*
X113319523Y-116661084D01*
X113557618Y-117137275D02*
X113557618Y-116137275D01*
X113557618Y-116137275D02*
X113176666Y-116137275D01*
X113176666Y-116137275D02*
X113081428Y-116184894D01*
X113081428Y-116184894D02*
X113033809Y-116232513D01*
X113033809Y-116232513D02*
X112986190Y-116327751D01*
X112986190Y-116327751D02*
X112986190Y-116470608D01*
X112986190Y-116470608D02*
X113033809Y-116565846D01*
X113033809Y-116565846D02*
X113081428Y-116613465D01*
X113081428Y-116613465D02*
X113176666Y-116661084D01*
X113176666Y-116661084D02*
X113557618Y-116661084D01*
X112557618Y-117137275D02*
X112557618Y-116137275D01*
X112557618Y-116137275D02*
X112319523Y-116137275D01*
X112319523Y-116137275D02*
X112176666Y-116184894D01*
X112176666Y-116184894D02*
X112081428Y-116280132D01*
X112081428Y-116280132D02*
X112033809Y-116375370D01*
X112033809Y-116375370D02*
X111986190Y-116565846D01*
X111986190Y-116565846D02*
X111986190Y-116708703D01*
X111986190Y-116708703D02*
X112033809Y-116899179D01*
X112033809Y-116899179D02*
X112081428Y-116994417D01*
X112081428Y-116994417D02*
X112176666Y-117089656D01*
X112176666Y-117089656D02*
X112319523Y-117137275D01*
X112319523Y-117137275D02*
X112557618Y-117137275D01*
X122533809Y-118747219D02*
X122533809Y-117747219D01*
X122533809Y-117747219D02*
X122152857Y-117747219D01*
X122152857Y-117747219D02*
X122057619Y-117794838D01*
X122057619Y-117794838D02*
X122010000Y-117842457D01*
X122010000Y-117842457D02*
X121962381Y-117937695D01*
X121962381Y-117937695D02*
X121962381Y-118080552D01*
X121962381Y-118080552D02*
X122010000Y-118175790D01*
X122010000Y-118175790D02*
X122057619Y-118223409D01*
X122057619Y-118223409D02*
X122152857Y-118271028D01*
X122152857Y-118271028D02*
X122533809Y-118271028D01*
X121343333Y-117747219D02*
X121152857Y-117747219D01*
X121152857Y-117747219D02*
X121057619Y-117794838D01*
X121057619Y-117794838D02*
X120962381Y-117890076D01*
X120962381Y-117890076D02*
X120914762Y-118080552D01*
X120914762Y-118080552D02*
X120914762Y-118413885D01*
X120914762Y-118413885D02*
X120962381Y-118604361D01*
X120962381Y-118604361D02*
X121057619Y-118699600D01*
X121057619Y-118699600D02*
X121152857Y-118747219D01*
X121152857Y-118747219D02*
X121343333Y-118747219D01*
X121343333Y-118747219D02*
X121438571Y-118699600D01*
X121438571Y-118699600D02*
X121533809Y-118604361D01*
X121533809Y-118604361D02*
X121581428Y-118413885D01*
X121581428Y-118413885D02*
X121581428Y-118080552D01*
X121581428Y-118080552D02*
X121533809Y-117890076D01*
X121533809Y-117890076D02*
X121438571Y-117794838D01*
X121438571Y-117794838D02*
X121343333Y-117747219D01*
X120581428Y-117747219D02*
X120343333Y-118747219D01*
X120343333Y-118747219D02*
X120152857Y-118032933D01*
X120152857Y-118032933D02*
X119962381Y-118747219D01*
X119962381Y-118747219D02*
X119724286Y-117747219D01*
X119343333Y-118223409D02*
X119010000Y-118223409D01*
X118867143Y-118747219D02*
X119343333Y-118747219D01*
X119343333Y-118747219D02*
X119343333Y-117747219D01*
X119343333Y-117747219D02*
X118867143Y-117747219D01*
X117867143Y-118747219D02*
X118200476Y-118271028D01*
X118438571Y-118747219D02*
X118438571Y-117747219D01*
X118438571Y-117747219D02*
X118057619Y-117747219D01*
X118057619Y-117747219D02*
X117962381Y-117794838D01*
X117962381Y-117794838D02*
X117914762Y-117842457D01*
X117914762Y-117842457D02*
X117867143Y-117937695D01*
X117867143Y-117937695D02*
X117867143Y-118080552D01*
X117867143Y-118080552D02*
X117914762Y-118175790D01*
X117914762Y-118175790D02*
X117962381Y-118223409D01*
X117962381Y-118223409D02*
X118057619Y-118271028D01*
X118057619Y-118271028D02*
X118438571Y-118271028D01*
X116724285Y-118699600D02*
X116581428Y-118747219D01*
X116581428Y-118747219D02*
X116343333Y-118747219D01*
X116343333Y-118747219D02*
X116248095Y-118699600D01*
X116248095Y-118699600D02*
X116200476Y-118651980D01*
X116200476Y-118651980D02*
X116152857Y-118556742D01*
X116152857Y-118556742D02*
X116152857Y-118461504D01*
X116152857Y-118461504D02*
X116200476Y-118366266D01*
X116200476Y-118366266D02*
X116248095Y-118318647D01*
X116248095Y-118318647D02*
X116343333Y-118271028D01*
X116343333Y-118271028D02*
X116533809Y-118223409D01*
X116533809Y-118223409D02*
X116629047Y-118175790D01*
X116629047Y-118175790D02*
X116676666Y-118128171D01*
X116676666Y-118128171D02*
X116724285Y-118032933D01*
X116724285Y-118032933D02*
X116724285Y-117937695D01*
X116724285Y-117937695D02*
X116676666Y-117842457D01*
X116676666Y-117842457D02*
X116629047Y-117794838D01*
X116629047Y-117794838D02*
X116533809Y-117747219D01*
X116533809Y-117747219D02*
X116295714Y-117747219D01*
X116295714Y-117747219D02*
X116152857Y-117794838D01*
X115724285Y-117747219D02*
X115724285Y-118556742D01*
X115724285Y-118556742D02*
X115676666Y-118651980D01*
X115676666Y-118651980D02*
X115629047Y-118699600D01*
X115629047Y-118699600D02*
X115533809Y-118747219D01*
X115533809Y-118747219D02*
X115343333Y-118747219D01*
X115343333Y-118747219D02*
X115248095Y-118699600D01*
X115248095Y-118699600D02*
X115200476Y-118651980D01*
X115200476Y-118651980D02*
X115152857Y-118556742D01*
X115152857Y-118556742D02*
X115152857Y-117747219D01*
X114676666Y-118747219D02*
X114676666Y-117747219D01*
X114676666Y-117747219D02*
X114295714Y-117747219D01*
X114295714Y-117747219D02*
X114200476Y-117794838D01*
X114200476Y-117794838D02*
X114152857Y-117842457D01*
X114152857Y-117842457D02*
X114105238Y-117937695D01*
X114105238Y-117937695D02*
X114105238Y-118080552D01*
X114105238Y-118080552D02*
X114152857Y-118175790D01*
X114152857Y-118175790D02*
X114200476Y-118223409D01*
X114200476Y-118223409D02*
X114295714Y-118271028D01*
X114295714Y-118271028D02*
X114676666Y-118271028D01*
X113676666Y-118747219D02*
X113676666Y-117747219D01*
X113676666Y-117747219D02*
X113295714Y-117747219D01*
X113295714Y-117747219D02*
X113200476Y-117794838D01*
X113200476Y-117794838D02*
X113152857Y-117842457D01*
X113152857Y-117842457D02*
X113105238Y-117937695D01*
X113105238Y-117937695D02*
X113105238Y-118080552D01*
X113105238Y-118080552D02*
X113152857Y-118175790D01*
X113152857Y-118175790D02*
X113200476Y-118223409D01*
X113200476Y-118223409D02*
X113295714Y-118271028D01*
X113295714Y-118271028D02*
X113676666Y-118271028D01*
X112200476Y-118747219D02*
X112676666Y-118747219D01*
X112676666Y-118747219D02*
X112676666Y-117747219D01*
X111676666Y-118271028D02*
X111676666Y-118747219D01*
X112009999Y-117747219D02*
X111676666Y-118271028D01*
X111676666Y-118271028D02*
X111343333Y-117747219D01*
D12*
%TO.C,REF\u002A\u002A*%
X119014562Y-81322850D02*
X119097313Y-81350053D01*
X119172406Y-81395484D01*
X119244298Y-81461302D01*
X119282846Y-81505567D01*
X119322256Y-81563961D01*
X119347446Y-81624586D01*
X119360861Y-81693865D01*
X119364948Y-81778222D01*
X119364669Y-81824307D01*
X119362460Y-81865450D01*
X119356894Y-81897582D01*
X119346586Y-81928122D01*
X119330148Y-81964489D01*
X119316200Y-81991728D01*
X119257665Y-82077429D01*
X119185619Y-82146617D01*
X119101947Y-82197741D01*
X119008531Y-82229250D01*
X118975434Y-82236225D01*
X118934960Y-82243094D01*
X118901999Y-82244919D01*
X118867698Y-82241947D01*
X118823200Y-82234426D01*
X118771934Y-82222002D01*
X118681434Y-82184112D01*
X118602345Y-82129836D01*
X118536528Y-82061770D01*
X118485840Y-81982511D01*
X118452140Y-81894654D01*
X118437286Y-81800795D01*
X118443136Y-81703530D01*
X118469399Y-81607220D01*
X118514418Y-81518494D01*
X118575373Y-81443419D01*
X118650184Y-81383641D01*
X118736768Y-81340809D01*
X118833043Y-81316571D01*
X118936928Y-81312576D01*
X119014562Y-81322850D01*
G36*
X119014562Y-81322850D02*
G01*
X119097313Y-81350053D01*
X119172406Y-81395484D01*
X119244298Y-81461302D01*
X119282846Y-81505567D01*
X119322256Y-81563961D01*
X119347446Y-81624586D01*
X119360861Y-81693865D01*
X119364948Y-81778222D01*
X119364669Y-81824307D01*
X119362460Y-81865450D01*
X119356894Y-81897582D01*
X119346586Y-81928122D01*
X119330148Y-81964489D01*
X119316200Y-81991728D01*
X119257665Y-82077429D01*
X119185619Y-82146617D01*
X119101947Y-82197741D01*
X119008531Y-82229250D01*
X118975434Y-82236225D01*
X118934960Y-82243094D01*
X118901999Y-82244919D01*
X118867698Y-82241947D01*
X118823200Y-82234426D01*
X118771934Y-82222002D01*
X118681434Y-82184112D01*
X118602345Y-82129836D01*
X118536528Y-82061770D01*
X118485840Y-81982511D01*
X118452140Y-81894654D01*
X118437286Y-81800795D01*
X118443136Y-81703530D01*
X118469399Y-81607220D01*
X118514418Y-81518494D01*
X118575373Y-81443419D01*
X118650184Y-81383641D01*
X118736768Y-81340809D01*
X118833043Y-81316571D01*
X118936928Y-81312576D01*
X119014562Y-81322850D01*
G37*
X116548711Y-82252033D02*
X116644268Y-82269523D01*
X116808558Y-82314564D01*
X116962589Y-82377656D01*
X117108509Y-82459915D01*
X117248466Y-82562457D01*
X117384608Y-82686399D01*
X117428473Y-82731661D01*
X117540758Y-82863865D01*
X117633972Y-83001832D01*
X117710719Y-83149750D01*
X117773603Y-83311803D01*
X117777420Y-83323391D01*
X117827507Y-83509392D01*
X117860899Y-83705521D01*
X117877584Y-83907568D01*
X117877551Y-84111325D01*
X117860791Y-84312581D01*
X117827292Y-84507128D01*
X117777044Y-84690756D01*
X117733190Y-84808053D01*
X117655348Y-84970951D01*
X117561828Y-85124866D01*
X117454822Y-85266671D01*
X117336519Y-85393239D01*
X117209111Y-85501441D01*
X117131606Y-85554120D01*
X117004725Y-85623750D01*
X116867243Y-85682468D01*
X116725716Y-85727587D01*
X116586702Y-85756422D01*
X116572597Y-85758106D01*
X116529153Y-85761434D01*
X116471723Y-85764275D01*
X116406122Y-85766373D01*
X116338167Y-85767468D01*
X116211378Y-85765140D01*
X116063673Y-85752136D01*
X115925779Y-85727133D01*
X115792014Y-85689318D01*
X115768562Y-85680889D01*
X115720612Y-85661408D01*
X115664140Y-85636473D01*
X115602379Y-85607722D01*
X115538563Y-85576790D01*
X115475926Y-85545315D01*
X115417703Y-85514934D01*
X115367127Y-85487283D01*
X115327433Y-85463999D01*
X115301854Y-85446718D01*
X115293625Y-85437079D01*
X115295076Y-85433984D01*
X115306250Y-85414079D01*
X115327134Y-85378420D01*
X115356265Y-85329459D01*
X115392181Y-85269646D01*
X115433420Y-85201433D01*
X115478517Y-85127271D01*
X115659785Y-84830008D01*
X115706315Y-84874539D01*
X115797723Y-84952865D01*
X115911334Y-85027439D01*
X116029122Y-85081474D01*
X116149559Y-85114290D01*
X116271117Y-85125211D01*
X116312585Y-85123868D01*
X116430080Y-85105612D01*
X116540089Y-85066617D01*
X116641430Y-85007670D01*
X116732921Y-84929557D01*
X116813380Y-84833064D01*
X116881627Y-84718978D01*
X116897908Y-84684724D01*
X116943982Y-84561240D01*
X116979106Y-84422918D01*
X117003197Y-84273561D01*
X117016173Y-84116973D01*
X117017949Y-83956956D01*
X117008443Y-83797314D01*
X116987572Y-83641850D01*
X116955252Y-83494366D01*
X116911399Y-83358667D01*
X116873982Y-83272076D01*
X116809185Y-83158688D01*
X116733772Y-83065070D01*
X116647418Y-82990959D01*
X116549795Y-82936094D01*
X116440577Y-82900212D01*
X116319439Y-82883051D01*
X116250038Y-82881880D01*
X116127168Y-82896141D01*
X116011664Y-82931241D01*
X115904953Y-82986682D01*
X115808464Y-83061964D01*
X115792720Y-83076440D01*
X115762150Y-83102962D01*
X115739809Y-83120138D01*
X115729691Y-83124787D01*
X115727706Y-83122597D01*
X115713241Y-83103721D01*
X115689400Y-83070397D01*
X115658029Y-83025380D01*
X115620974Y-82971425D01*
X115580083Y-82911285D01*
X115537202Y-82847718D01*
X115494178Y-82783476D01*
X115452857Y-82721315D01*
X115415086Y-82663991D01*
X115382712Y-82614257D01*
X115357582Y-82574868D01*
X115341542Y-82548580D01*
X115336439Y-82538147D01*
X115341050Y-82533941D01*
X115360267Y-82528933D01*
X115369838Y-82526386D01*
X115397809Y-82515249D01*
X115439448Y-82496802D01*
X115490995Y-82472725D01*
X115548690Y-82444699D01*
X115559957Y-82439154D01*
X115737687Y-82359889D01*
X115907490Y-82300385D01*
X116071430Y-82260245D01*
X116231571Y-82239071D01*
X116389977Y-82236466D01*
X116548711Y-82252033D01*
G36*
X116548711Y-82252033D02*
G01*
X116644268Y-82269523D01*
X116808558Y-82314564D01*
X116962589Y-82377656D01*
X117108509Y-82459915D01*
X117248466Y-82562457D01*
X117384608Y-82686399D01*
X117428473Y-82731661D01*
X117540758Y-82863865D01*
X117633972Y-83001832D01*
X117710719Y-83149750D01*
X117773603Y-83311803D01*
X117777420Y-83323391D01*
X117827507Y-83509392D01*
X117860899Y-83705521D01*
X117877584Y-83907568D01*
X117877551Y-84111325D01*
X117860791Y-84312581D01*
X117827292Y-84507128D01*
X117777044Y-84690756D01*
X117733190Y-84808053D01*
X117655348Y-84970951D01*
X117561828Y-85124866D01*
X117454822Y-85266671D01*
X117336519Y-85393239D01*
X117209111Y-85501441D01*
X117131606Y-85554120D01*
X117004725Y-85623750D01*
X116867243Y-85682468D01*
X116725716Y-85727587D01*
X116586702Y-85756422D01*
X116572597Y-85758106D01*
X116529153Y-85761434D01*
X116471723Y-85764275D01*
X116406122Y-85766373D01*
X116338167Y-85767468D01*
X116211378Y-85765140D01*
X116063673Y-85752136D01*
X115925779Y-85727133D01*
X115792014Y-85689318D01*
X115768562Y-85680889D01*
X115720612Y-85661408D01*
X115664140Y-85636473D01*
X115602379Y-85607722D01*
X115538563Y-85576790D01*
X115475926Y-85545315D01*
X115417703Y-85514934D01*
X115367127Y-85487283D01*
X115327433Y-85463999D01*
X115301854Y-85446718D01*
X115293625Y-85437079D01*
X115295076Y-85433984D01*
X115306250Y-85414079D01*
X115327134Y-85378420D01*
X115356265Y-85329459D01*
X115392181Y-85269646D01*
X115433420Y-85201433D01*
X115478517Y-85127271D01*
X115659785Y-84830008D01*
X115706315Y-84874539D01*
X115797723Y-84952865D01*
X115911334Y-85027439D01*
X116029122Y-85081474D01*
X116149559Y-85114290D01*
X116271117Y-85125211D01*
X116312585Y-85123868D01*
X116430080Y-85105612D01*
X116540089Y-85066617D01*
X116641430Y-85007670D01*
X116732921Y-84929557D01*
X116813380Y-84833064D01*
X116881627Y-84718978D01*
X116897908Y-84684724D01*
X116943982Y-84561240D01*
X116979106Y-84422918D01*
X117003197Y-84273561D01*
X117016173Y-84116973D01*
X117017949Y-83956956D01*
X117008443Y-83797314D01*
X116987572Y-83641850D01*
X116955252Y-83494366D01*
X116911399Y-83358667D01*
X116873982Y-83272076D01*
X116809185Y-83158688D01*
X116733772Y-83065070D01*
X116647418Y-82990959D01*
X116549795Y-82936094D01*
X116440577Y-82900212D01*
X116319439Y-82883051D01*
X116250038Y-82881880D01*
X116127168Y-82896141D01*
X116011664Y-82931241D01*
X115904953Y-82986682D01*
X115808464Y-83061964D01*
X115792720Y-83076440D01*
X115762150Y-83102962D01*
X115739809Y-83120138D01*
X115729691Y-83124787D01*
X115727706Y-83122597D01*
X115713241Y-83103721D01*
X115689400Y-83070397D01*
X115658029Y-83025380D01*
X115620974Y-82971425D01*
X115580083Y-82911285D01*
X115537202Y-82847718D01*
X115494178Y-82783476D01*
X115452857Y-82721315D01*
X115415086Y-82663991D01*
X115382712Y-82614257D01*
X115357582Y-82574868D01*
X115341542Y-82548580D01*
X115336439Y-82538147D01*
X115341050Y-82533941D01*
X115360267Y-82528933D01*
X115369838Y-82526386D01*
X115397809Y-82515249D01*
X115439448Y-82496802D01*
X115490995Y-82472725D01*
X115548690Y-82444699D01*
X115559957Y-82439154D01*
X115737687Y-82359889D01*
X115907490Y-82300385D01*
X116071430Y-82260245D01*
X116231571Y-82239071D01*
X116389977Y-82236466D01*
X116548711Y-82252033D01*
G37*
X112745994Y-84532711D02*
X112745268Y-84610158D01*
X112736689Y-84761594D01*
X112717833Y-84898283D01*
X112687837Y-85024276D01*
X112645836Y-85143625D01*
X112590969Y-85260381D01*
X112524167Y-85371179D01*
X112433363Y-85484739D01*
X112329708Y-85580211D01*
X112213887Y-85657073D01*
X112086586Y-85714797D01*
X111948489Y-85752858D01*
X111910793Y-85758666D01*
X111831752Y-85764396D01*
X111743629Y-85764583D01*
X111654236Y-85759539D01*
X111571384Y-85749578D01*
X111502887Y-85735012D01*
X111472035Y-85725364D01*
X111394730Y-85695123D01*
X111317679Y-85657617D01*
X111248200Y-85616614D01*
X111193615Y-85575879D01*
X111170916Y-85556505D01*
X111148201Y-85538662D01*
X111136779Y-85531778D01*
X111135537Y-85533424D01*
X111132728Y-85551205D01*
X111130776Y-85584370D01*
X111130045Y-85627733D01*
X111130045Y-85723689D01*
X110271896Y-85723689D01*
X110306161Y-85662974D01*
X110311355Y-85653868D01*
X110319715Y-85639249D01*
X110327288Y-85625173D01*
X110334112Y-85610540D01*
X110340227Y-85594249D01*
X110345673Y-85575198D01*
X110350487Y-85552286D01*
X110354708Y-85524413D01*
X110358377Y-85490478D01*
X110361531Y-85449379D01*
X110364211Y-85400015D01*
X110366454Y-85341286D01*
X110368299Y-85272090D01*
X110369787Y-85191326D01*
X110370955Y-85097894D01*
X110371844Y-84990692D01*
X110372491Y-84868620D01*
X110372936Y-84730576D01*
X110373218Y-84575459D01*
X110373375Y-84402168D01*
X110373448Y-84209603D01*
X110373474Y-83996662D01*
X110373485Y-83860530D01*
X111175200Y-83860530D01*
X111175200Y-85010721D01*
X111245756Y-85057089D01*
X111286417Y-85080791D01*
X111340546Y-85106639D01*
X111389689Y-85124829D01*
X111453165Y-85140551D01*
X111549331Y-85151541D01*
X111633900Y-85143365D01*
X111707219Y-85115805D01*
X111769637Y-85068642D01*
X111821502Y-85001658D01*
X111863160Y-84914633D01*
X111894962Y-84807350D01*
X111897545Y-84795009D01*
X111906000Y-84733772D01*
X111911663Y-84656692D01*
X111914576Y-84569002D01*
X111914783Y-84475934D01*
X111912330Y-84382720D01*
X111907261Y-84294594D01*
X111899619Y-84216788D01*
X111889448Y-84154533D01*
X111888167Y-84148666D01*
X111859126Y-84038121D01*
X111824610Y-83947575D01*
X111783456Y-83874953D01*
X111734499Y-83818181D01*
X111676574Y-83775184D01*
X111644620Y-83759615D01*
X111571784Y-83740722D01*
X111490443Y-83737465D01*
X111405319Y-83749389D01*
X111321133Y-83776040D01*
X111242608Y-83816962D01*
X111175200Y-83860530D01*
X110373485Y-83860530D01*
X110373493Y-83762245D01*
X110373689Y-82077378D01*
X111279017Y-82077378D01*
X111254585Y-82114067D01*
X111248318Y-82123647D01*
X111222208Y-82169981D01*
X111204469Y-82217102D01*
X111192908Y-82272251D01*
X111185331Y-82342667D01*
X111184839Y-82349650D01*
X111183062Y-82387641D01*
X111181444Y-82441576D01*
X111179999Y-82508703D01*
X111178740Y-82586271D01*
X111177680Y-82671528D01*
X111176829Y-82761724D01*
X111176203Y-82854107D01*
X111175812Y-82945925D01*
X111175670Y-83034427D01*
X111175790Y-83116862D01*
X111176183Y-83190479D01*
X111176862Y-83252526D01*
X111177841Y-83300251D01*
X111179132Y-83330904D01*
X111180747Y-83341733D01*
X111188957Y-83337333D01*
X111210647Y-83322362D01*
X111240014Y-83300448D01*
X111288879Y-83266236D01*
X111377125Y-83219714D01*
X111475916Y-83186046D01*
X111588510Y-83164231D01*
X111718164Y-83153265D01*
X111810670Y-83152219D01*
X111932011Y-83162014D01*
X112042099Y-83186174D01*
X112145389Y-83225785D01*
X112246338Y-83281932D01*
X112291503Y-83312883D01*
X112396911Y-83404115D01*
X112488538Y-83513106D01*
X112566332Y-83639726D01*
X112630241Y-83783845D01*
X112680214Y-83945332D01*
X112716198Y-84124059D01*
X112738143Y-84319895D01*
X112743900Y-84475934D01*
X112745994Y-84532711D01*
G36*
X112745994Y-84532711D02*
G01*
X112745268Y-84610158D01*
X112736689Y-84761594D01*
X112717833Y-84898283D01*
X112687837Y-85024276D01*
X112645836Y-85143625D01*
X112590969Y-85260381D01*
X112524167Y-85371179D01*
X112433363Y-85484739D01*
X112329708Y-85580211D01*
X112213887Y-85657073D01*
X112086586Y-85714797D01*
X111948489Y-85752858D01*
X111910793Y-85758666D01*
X111831752Y-85764396D01*
X111743629Y-85764583D01*
X111654236Y-85759539D01*
X111571384Y-85749578D01*
X111502887Y-85735012D01*
X111472035Y-85725364D01*
X111394730Y-85695123D01*
X111317679Y-85657617D01*
X111248200Y-85616614D01*
X111193615Y-85575879D01*
X111170916Y-85556505D01*
X111148201Y-85538662D01*
X111136779Y-85531778D01*
X111135537Y-85533424D01*
X111132728Y-85551205D01*
X111130776Y-85584370D01*
X111130045Y-85627733D01*
X111130045Y-85723689D01*
X110271896Y-85723689D01*
X110306161Y-85662974D01*
X110311355Y-85653868D01*
X110319715Y-85639249D01*
X110327288Y-85625173D01*
X110334112Y-85610540D01*
X110340227Y-85594249D01*
X110345673Y-85575198D01*
X110350487Y-85552286D01*
X110354708Y-85524413D01*
X110358377Y-85490478D01*
X110361531Y-85449379D01*
X110364211Y-85400015D01*
X110366454Y-85341286D01*
X110368299Y-85272090D01*
X110369787Y-85191326D01*
X110370955Y-85097894D01*
X110371844Y-84990692D01*
X110372491Y-84868620D01*
X110372936Y-84730576D01*
X110373218Y-84575459D01*
X110373375Y-84402168D01*
X110373448Y-84209603D01*
X110373474Y-83996662D01*
X110373485Y-83860530D01*
X111175200Y-83860530D01*
X111175200Y-85010721D01*
X111245756Y-85057089D01*
X111286417Y-85080791D01*
X111340546Y-85106639D01*
X111389689Y-85124829D01*
X111453165Y-85140551D01*
X111549331Y-85151541D01*
X111633900Y-85143365D01*
X111707219Y-85115805D01*
X111769637Y-85068642D01*
X111821502Y-85001658D01*
X111863160Y-84914633D01*
X111894962Y-84807350D01*
X111897545Y-84795009D01*
X111906000Y-84733772D01*
X111911663Y-84656692D01*
X111914576Y-84569002D01*
X111914783Y-84475934D01*
X111912330Y-84382720D01*
X111907261Y-84294594D01*
X111899619Y-84216788D01*
X111889448Y-84154533D01*
X111888167Y-84148666D01*
X111859126Y-84038121D01*
X111824610Y-83947575D01*
X111783456Y-83874953D01*
X111734499Y-83818181D01*
X111676574Y-83775184D01*
X111644620Y-83759615D01*
X111571784Y-83740722D01*
X111490443Y-83737465D01*
X111405319Y-83749389D01*
X111321133Y-83776040D01*
X111242608Y-83816962D01*
X111175200Y-83860530D01*
X110373485Y-83860530D01*
X110373493Y-83762245D01*
X110373689Y-82077378D01*
X111279017Y-82077378D01*
X111254585Y-82114067D01*
X111248318Y-82123647D01*
X111222208Y-82169981D01*
X111204469Y-82217102D01*
X111192908Y-82272251D01*
X111185331Y-82342667D01*
X111184839Y-82349650D01*
X111183062Y-82387641D01*
X111181444Y-82441576D01*
X111179999Y-82508703D01*
X111178740Y-82586271D01*
X111177680Y-82671528D01*
X111176829Y-82761724D01*
X111176203Y-82854107D01*
X111175812Y-82945925D01*
X111175670Y-83034427D01*
X111175790Y-83116862D01*
X111176183Y-83190479D01*
X111176862Y-83252526D01*
X111177841Y-83300251D01*
X111179132Y-83330904D01*
X111180747Y-83341733D01*
X111188957Y-83337333D01*
X111210647Y-83322362D01*
X111240014Y-83300448D01*
X111288879Y-83266236D01*
X111377125Y-83219714D01*
X111475916Y-83186046D01*
X111588510Y-83164231D01*
X111718164Y-83153265D01*
X111810670Y-83152219D01*
X111932011Y-83162014D01*
X112042099Y-83186174D01*
X112145389Y-83225785D01*
X112246338Y-83281932D01*
X112291503Y-83312883D01*
X112396911Y-83404115D01*
X112488538Y-83513106D01*
X112566332Y-83639726D01*
X112630241Y-83783845D01*
X112680214Y-83945332D01*
X112716198Y-84124059D01*
X112738143Y-84319895D01*
X112743900Y-84475934D01*
X112745994Y-84532711D01*
G37*
X115287755Y-84933467D02*
X115287261Y-84967363D01*
X115283632Y-85042202D01*
X115276022Y-85104401D01*
X115263688Y-85160984D01*
X115219313Y-85287076D01*
X115156400Y-85401679D01*
X115076238Y-85502568D01*
X114979740Y-85588924D01*
X114867822Y-85659932D01*
X114741397Y-85714776D01*
X114601378Y-85752638D01*
X114565149Y-85758351D01*
X114486155Y-85764313D01*
X114397841Y-85764646D01*
X114308075Y-85759659D01*
X114224722Y-85749666D01*
X114155651Y-85734978D01*
X114069187Y-85704749D01*
X113959286Y-85650057D01*
X113861956Y-85582543D01*
X113799867Y-85531556D01*
X113796605Y-85627622D01*
X113793343Y-85723689D01*
X113370450Y-85723689D01*
X113359543Y-85723686D01*
X113265056Y-85723380D01*
X113178331Y-85722616D01*
X113101837Y-85721451D01*
X113038043Y-85719942D01*
X112989418Y-85718147D01*
X112958433Y-85716121D01*
X112947556Y-85713922D01*
X112947578Y-85713463D01*
X112954614Y-85697910D01*
X112970434Y-85675071D01*
X112974734Y-85669638D01*
X112985777Y-85655606D01*
X112995311Y-85642186D01*
X113003461Y-85627722D01*
X113010352Y-85610556D01*
X113016111Y-85589034D01*
X113020862Y-85561498D01*
X113024731Y-85526292D01*
X113027844Y-85481760D01*
X113030325Y-85426246D01*
X113032300Y-85358093D01*
X113033894Y-85275645D01*
X113035234Y-85177246D01*
X113036444Y-85061239D01*
X113037649Y-84925968D01*
X113038595Y-84814586D01*
X113839378Y-84814586D01*
X113839378Y-85010462D01*
X113884048Y-85066973D01*
X113896785Y-85082212D01*
X113943604Y-85124844D01*
X114004255Y-85160672D01*
X114014897Y-85165850D01*
X114053676Y-85182745D01*
X114088692Y-85192909D01*
X114128722Y-85198325D01*
X114182541Y-85200978D01*
X114200648Y-85201383D01*
X114276011Y-85198540D01*
X114336743Y-85186620D01*
X114388452Y-85164037D01*
X114436746Y-85129211D01*
X114441803Y-85124798D01*
X114490272Y-85069160D01*
X114518459Y-85005333D01*
X114527752Y-84930282D01*
X114520520Y-84858693D01*
X114495796Y-84795645D01*
X114451249Y-84737758D01*
X114396319Y-84690808D01*
X114323894Y-84650961D01*
X114237340Y-84623263D01*
X114134670Y-84607096D01*
X114013894Y-84601842D01*
X114005007Y-84601857D01*
X113949660Y-84602655D01*
X113902736Y-84604488D01*
X113868953Y-84607111D01*
X113853028Y-84610274D01*
X113848943Y-84616741D01*
X113844572Y-84638875D01*
X113841604Y-84677988D01*
X113839914Y-84735939D01*
X113839378Y-84814586D01*
X113038595Y-84814586D01*
X113038975Y-84769778D01*
X113040228Y-84627012D01*
X113041651Y-84481942D01*
X113043176Y-84356027D01*
X113044933Y-84247436D01*
X113047051Y-84154334D01*
X113049660Y-84074891D01*
X113052890Y-84007273D01*
X113056869Y-83949649D01*
X113061728Y-83900185D01*
X113067597Y-83857050D01*
X113074604Y-83818410D01*
X113082880Y-83782434D01*
X113092554Y-83747289D01*
X113103756Y-83711142D01*
X113116616Y-83672161D01*
X113132090Y-83629091D01*
X113174994Y-83536871D01*
X113228735Y-83457099D01*
X113297576Y-83382965D01*
X113375185Y-83319405D01*
X113479761Y-83257725D01*
X113599244Y-83210202D01*
X113734508Y-83176567D01*
X113886426Y-83156552D01*
X114055872Y-83149889D01*
X114113890Y-83150287D01*
X114179398Y-83152335D01*
X114240693Y-83156704D01*
X114302097Y-83164035D01*
X114367932Y-83174969D01*
X114442520Y-83190147D01*
X114530184Y-83210209D01*
X114635245Y-83235797D01*
X114663806Y-83242820D01*
X114739054Y-83260776D01*
X114809388Y-83276820D01*
X114870567Y-83290028D01*
X114918354Y-83299474D01*
X114948511Y-83304231D01*
X114976783Y-83307910D01*
X115003060Y-83313187D01*
X115013059Y-83317942D01*
X115009952Y-83326781D01*
X114999194Y-83354072D01*
X114981864Y-83396906D01*
X114959126Y-83452425D01*
X114932147Y-83517772D01*
X114902090Y-83590089D01*
X114895493Y-83605879D01*
X114856907Y-83696484D01*
X114825768Y-83766217D01*
X114801917Y-83815405D01*
X114785198Y-83844374D01*
X114775454Y-83853452D01*
X114767766Y-83851405D01*
X114741415Y-83841760D01*
X114702982Y-83826190D01*
X114657822Y-83806815D01*
X114563293Y-83768814D01*
X114426480Y-83727780D01*
X114285289Y-83702612D01*
X114247314Y-83698611D01*
X114144059Y-83696447D01*
X114056952Y-83709622D01*
X113985129Y-83738756D01*
X113927731Y-83784466D01*
X113883896Y-83847372D01*
X113852762Y-83928092D01*
X113833470Y-84027245D01*
X113826050Y-84086224D01*
X113987936Y-84079445D01*
X114114495Y-84077813D01*
X114265951Y-84084194D01*
X114414396Y-84098777D01*
X114550578Y-84120882D01*
X114615245Y-84135821D01*
X114747490Y-84178741D01*
X114869762Y-84235340D01*
X114979685Y-84304017D01*
X115074883Y-84383170D01*
X115152980Y-84471196D01*
X115211599Y-84566493D01*
X115235595Y-84618864D01*
X115261232Y-84689590D01*
X115277478Y-84760812D01*
X115285822Y-84839712D01*
X115287690Y-84930282D01*
X115287755Y-84933467D01*
G36*
X115287755Y-84933467D02*
G01*
X115287261Y-84967363D01*
X115283632Y-85042202D01*
X115276022Y-85104401D01*
X115263688Y-85160984D01*
X115219313Y-85287076D01*
X115156400Y-85401679D01*
X115076238Y-85502568D01*
X114979740Y-85588924D01*
X114867822Y-85659932D01*
X114741397Y-85714776D01*
X114601378Y-85752638D01*
X114565149Y-85758351D01*
X114486155Y-85764313D01*
X114397841Y-85764646D01*
X114308075Y-85759659D01*
X114224722Y-85749666D01*
X114155651Y-85734978D01*
X114069187Y-85704749D01*
X113959286Y-85650057D01*
X113861956Y-85582543D01*
X113799867Y-85531556D01*
X113796605Y-85627622D01*
X113793343Y-85723689D01*
X113370450Y-85723689D01*
X113359543Y-85723686D01*
X113265056Y-85723380D01*
X113178331Y-85722616D01*
X113101837Y-85721451D01*
X113038043Y-85719942D01*
X112989418Y-85718147D01*
X112958433Y-85716121D01*
X112947556Y-85713922D01*
X112947578Y-85713463D01*
X112954614Y-85697910D01*
X112970434Y-85675071D01*
X112974734Y-85669638D01*
X112985777Y-85655606D01*
X112995311Y-85642186D01*
X113003461Y-85627722D01*
X113010352Y-85610556D01*
X113016111Y-85589034D01*
X113020862Y-85561498D01*
X113024731Y-85526292D01*
X113027844Y-85481760D01*
X113030325Y-85426246D01*
X113032300Y-85358093D01*
X113033894Y-85275645D01*
X113035234Y-85177246D01*
X113036444Y-85061239D01*
X113037649Y-84925968D01*
X113038595Y-84814586D01*
X113839378Y-84814586D01*
X113839378Y-85010462D01*
X113884048Y-85066973D01*
X113896785Y-85082212D01*
X113943604Y-85124844D01*
X114004255Y-85160672D01*
X114014897Y-85165850D01*
X114053676Y-85182745D01*
X114088692Y-85192909D01*
X114128722Y-85198325D01*
X114182541Y-85200978D01*
X114200648Y-85201383D01*
X114276011Y-85198540D01*
X114336743Y-85186620D01*
X114388452Y-85164037D01*
X114436746Y-85129211D01*
X114441803Y-85124798D01*
X114490272Y-85069160D01*
X114518459Y-85005333D01*
X114527752Y-84930282D01*
X114520520Y-84858693D01*
X114495796Y-84795645D01*
X114451249Y-84737758D01*
X114396319Y-84690808D01*
X114323894Y-84650961D01*
X114237340Y-84623263D01*
X114134670Y-84607096D01*
X114013894Y-84601842D01*
X114005007Y-84601857D01*
X113949660Y-84602655D01*
X113902736Y-84604488D01*
X113868953Y-84607111D01*
X113853028Y-84610274D01*
X113848943Y-84616741D01*
X113844572Y-84638875D01*
X113841604Y-84677988D01*
X113839914Y-84735939D01*
X113839378Y-84814586D01*
X113038595Y-84814586D01*
X113038975Y-84769778D01*
X113040228Y-84627012D01*
X113041651Y-84481942D01*
X113043176Y-84356027D01*
X113044933Y-84247436D01*
X113047051Y-84154334D01*
X113049660Y-84074891D01*
X113052890Y-84007273D01*
X113056869Y-83949649D01*
X113061728Y-83900185D01*
X113067597Y-83857050D01*
X113074604Y-83818410D01*
X113082880Y-83782434D01*
X113092554Y-83747289D01*
X113103756Y-83711142D01*
X113116616Y-83672161D01*
X113132090Y-83629091D01*
X113174994Y-83536871D01*
X113228735Y-83457099D01*
X113297576Y-83382965D01*
X113375185Y-83319405D01*
X113479761Y-83257725D01*
X113599244Y-83210202D01*
X113734508Y-83176567D01*
X113886426Y-83156552D01*
X114055872Y-83149889D01*
X114113890Y-83150287D01*
X114179398Y-83152335D01*
X114240693Y-83156704D01*
X114302097Y-83164035D01*
X114367932Y-83174969D01*
X114442520Y-83190147D01*
X114530184Y-83210209D01*
X114635245Y-83235797D01*
X114663806Y-83242820D01*
X114739054Y-83260776D01*
X114809388Y-83276820D01*
X114870567Y-83290028D01*
X114918354Y-83299474D01*
X114948511Y-83304231D01*
X114976783Y-83307910D01*
X115003060Y-83313187D01*
X115013059Y-83317942D01*
X115009952Y-83326781D01*
X114999194Y-83354072D01*
X114981864Y-83396906D01*
X114959126Y-83452425D01*
X114932147Y-83517772D01*
X114902090Y-83590089D01*
X114895493Y-83605879D01*
X114856907Y-83696484D01*
X114825768Y-83766217D01*
X114801917Y-83815405D01*
X114785198Y-83844374D01*
X114775454Y-83853452D01*
X114767766Y-83851405D01*
X114741415Y-83841760D01*
X114702982Y-83826190D01*
X114657822Y-83806815D01*
X114563293Y-83768814D01*
X114426480Y-83727780D01*
X114285289Y-83702612D01*
X114247314Y-83698611D01*
X114144059Y-83696447D01*
X114056952Y-83709622D01*
X113985129Y-83738756D01*
X113927731Y-83784466D01*
X113883896Y-83847372D01*
X113852762Y-83928092D01*
X113833470Y-84027245D01*
X113826050Y-84086224D01*
X113987936Y-84079445D01*
X114114495Y-84077813D01*
X114265951Y-84084194D01*
X114414396Y-84098777D01*
X114550578Y-84120882D01*
X114615245Y-84135821D01*
X114747490Y-84178741D01*
X114869762Y-84235340D01*
X114979685Y-84304017D01*
X115074883Y-84383170D01*
X115152980Y-84471196D01*
X115211599Y-84566493D01*
X115235595Y-84618864D01*
X115261232Y-84689590D01*
X115277478Y-84760812D01*
X115285822Y-84839712D01*
X115287690Y-84930282D01*
X115287755Y-84933467D01*
G37*
X122835614Y-82401792D02*
X122836059Y-82533011D01*
X122836362Y-82680216D01*
X122836548Y-82844349D01*
X122836642Y-83026352D01*
X122836671Y-83227165D01*
X122836661Y-83447732D01*
X122836636Y-83688992D01*
X122836622Y-83951889D01*
X122836622Y-83994040D01*
X122836646Y-84254668D01*
X122836685Y-84493796D01*
X122836708Y-84712360D01*
X122836687Y-84911295D01*
X122836593Y-85091535D01*
X122836395Y-85254015D01*
X122836063Y-85399670D01*
X122835569Y-85529434D01*
X122834883Y-85644243D01*
X122833976Y-85745030D01*
X122832817Y-85832730D01*
X122831378Y-85908279D01*
X122829629Y-85972611D01*
X122827540Y-86026661D01*
X122825083Y-86071363D01*
X122822227Y-86107652D01*
X122818943Y-86136463D01*
X122815202Y-86158731D01*
X122810974Y-86175390D01*
X122806229Y-86187375D01*
X122800939Y-86195621D01*
X122795073Y-86201062D01*
X122788602Y-86204634D01*
X122781497Y-86207270D01*
X122773728Y-86209906D01*
X122765266Y-86213477D01*
X122760908Y-86215145D01*
X122752395Y-86217111D01*
X122739694Y-86218911D01*
X122721885Y-86220555D01*
X122698049Y-86222047D01*
X122667266Y-86223397D01*
X122628617Y-86224611D01*
X122581182Y-86225697D01*
X122524043Y-86226661D01*
X122456279Y-86227511D01*
X122376971Y-86228253D01*
X122285199Y-86228897D01*
X122180044Y-86229447D01*
X122060587Y-86229913D01*
X121925908Y-86230300D01*
X121775088Y-86230616D01*
X121607206Y-86230869D01*
X121421345Y-86231066D01*
X121216583Y-86231213D01*
X120992002Y-86231318D01*
X120746682Y-86231389D01*
X120479704Y-86231432D01*
X120441321Y-86231437D01*
X120175922Y-86231480D01*
X119932050Y-86231525D01*
X119708783Y-86231548D01*
X119505196Y-86231524D01*
X119320367Y-86231430D01*
X119153373Y-86231243D01*
X119003290Y-86230939D01*
X118869196Y-86230494D01*
X118750166Y-86229885D01*
X118645279Y-86229089D01*
X118553610Y-86228080D01*
X118474237Y-86226837D01*
X118406237Y-86225335D01*
X118348686Y-86223551D01*
X118300662Y-86221461D01*
X118261240Y-86219042D01*
X118229499Y-86216270D01*
X118204514Y-86213121D01*
X118185364Y-86209572D01*
X118171123Y-86205598D01*
X118160871Y-86201178D01*
X118153682Y-86196286D01*
X118148635Y-86190900D01*
X118144805Y-86184996D01*
X118141271Y-86178549D01*
X118137108Y-86171537D01*
X118136025Y-86169687D01*
X118133813Y-86164180D01*
X118131786Y-86155868D01*
X118129938Y-86143809D01*
X118128261Y-86127063D01*
X118126745Y-86104687D01*
X118125383Y-86075740D01*
X118124167Y-86039280D01*
X118123089Y-85994367D01*
X118122140Y-85940057D01*
X118121312Y-85875410D01*
X118120597Y-85799484D01*
X118119987Y-85711338D01*
X118119942Y-85702493D01*
X118411378Y-85702493D01*
X118415260Y-85703765D01*
X118438520Y-85705791D01*
X118480874Y-85707626D01*
X118540132Y-85709227D01*
X118614107Y-85710549D01*
X118700610Y-85711548D01*
X118797452Y-85712180D01*
X118902445Y-85712400D01*
X119600651Y-85712400D01*
X120755090Y-85712400D01*
X120754456Y-85636200D01*
X120755574Y-85594160D01*
X120761304Y-85558334D01*
X120773890Y-85520772D01*
X120795568Y-85472577D01*
X120798789Y-85465897D01*
X120824188Y-85416359D01*
X120850996Y-85368369D01*
X120873917Y-85331466D01*
X120878485Y-85324834D01*
X120900516Y-85293593D01*
X120932693Y-85248654D01*
X120973457Y-85192147D01*
X121021245Y-85126204D01*
X121074498Y-85052957D01*
X121131655Y-84974536D01*
X121191155Y-84893072D01*
X121251437Y-84810698D01*
X121310940Y-84729544D01*
X121368105Y-84651742D01*
X121421370Y-84579423D01*
X121469174Y-84514718D01*
X121509957Y-84459759D01*
X121542158Y-84416676D01*
X121564216Y-84387602D01*
X121574571Y-84374667D01*
X121579044Y-84370351D01*
X121583236Y-84368312D01*
X121586643Y-84370926D01*
X121589325Y-84379986D01*
X121591341Y-84397285D01*
X121592748Y-84424614D01*
X121593605Y-84463765D01*
X121593970Y-84516533D01*
X121593903Y-84584707D01*
X121593460Y-84670082D01*
X121592702Y-84774449D01*
X121591685Y-84899600D01*
X121591308Y-84944300D01*
X121590169Y-85065395D01*
X121588972Y-85166688D01*
X121587636Y-85250262D01*
X121586077Y-85318204D01*
X121584215Y-85372599D01*
X121581966Y-85415532D01*
X121579248Y-85449089D01*
X121575979Y-85475355D01*
X121572078Y-85496416D01*
X121567461Y-85514357D01*
X121559192Y-85540770D01*
X121535583Y-85602772D01*
X121509685Y-85655573D01*
X121484535Y-85692645D01*
X121483339Y-85694075D01*
X121481168Y-85698424D01*
X121483328Y-85702026D01*
X121491644Y-85704951D01*
X121507940Y-85707269D01*
X121534041Y-85709051D01*
X121571771Y-85710367D01*
X121622956Y-85711286D01*
X121689420Y-85711878D01*
X121772987Y-85712215D01*
X121875483Y-85712365D01*
X121998732Y-85712400D01*
X122530296Y-85712400D01*
X122491523Y-85654783D01*
X122485432Y-85645893D01*
X122474976Y-85631069D01*
X122465579Y-85617422D01*
X122457183Y-85603765D01*
X122449733Y-85588911D01*
X122443173Y-85571670D01*
X122437446Y-85550855D01*
X122432495Y-85525280D01*
X122428266Y-85493755D01*
X122424701Y-85455093D01*
X122421744Y-85408107D01*
X122419340Y-85351608D01*
X122417431Y-85284409D01*
X122415962Y-85205322D01*
X122414876Y-85113160D01*
X122414118Y-85006734D01*
X122413630Y-84884857D01*
X122413358Y-84746341D01*
X122413243Y-84589999D01*
X122413231Y-84414642D01*
X122413265Y-84219082D01*
X122413289Y-84002133D01*
X122413280Y-83879513D01*
X122413243Y-83674447D01*
X122413227Y-83490116D01*
X122413288Y-83325334D01*
X122413484Y-83178916D01*
X122413870Y-83049674D01*
X122414505Y-82936422D01*
X122415444Y-82837975D01*
X122416745Y-82753144D01*
X122418464Y-82680744D01*
X122420659Y-82619589D01*
X122423385Y-82568492D01*
X122426701Y-82526267D01*
X122430662Y-82491727D01*
X122435325Y-82463686D01*
X122440747Y-82440958D01*
X122446986Y-82422356D01*
X122454097Y-82406693D01*
X122462138Y-82392784D01*
X122471166Y-82379441D01*
X122481236Y-82365479D01*
X122492407Y-82349711D01*
X122532197Y-82291867D01*
X121472314Y-82291867D01*
X121510311Y-82354966D01*
X121524993Y-82380005D01*
X121539531Y-82407586D01*
X121551627Y-82435700D01*
X121561532Y-82466551D01*
X121569494Y-82502344D01*
X121575761Y-82545283D01*
X121580582Y-82597574D01*
X121584206Y-82661419D01*
X121586881Y-82739025D01*
X121588857Y-82832594D01*
X121590382Y-82944333D01*
X121591704Y-83076445D01*
X121592613Y-83196434D01*
X121593020Y-83313063D01*
X121592767Y-83408531D01*
X121591857Y-83482556D01*
X121590293Y-83534855D01*
X121588079Y-83565149D01*
X121585220Y-83573156D01*
X121582161Y-83569858D01*
X121564006Y-83548408D01*
X121534275Y-83511889D01*
X121494639Y-83462442D01*
X121446771Y-83402207D01*
X121392343Y-83333327D01*
X121333027Y-83257943D01*
X121270495Y-83178196D01*
X121206421Y-83096228D01*
X121142475Y-83014180D01*
X121080331Y-82934194D01*
X121021661Y-82858411D01*
X120968137Y-82788973D01*
X120921430Y-82728021D01*
X120883214Y-82677696D01*
X120855161Y-82640140D01*
X120838943Y-82617495D01*
X120793635Y-82545212D01*
X120753661Y-82465463D01*
X120732130Y-82397188D01*
X120728827Y-82339844D01*
X120734116Y-82291867D01*
X119602356Y-82292117D01*
X119641867Y-82322722D01*
X119651248Y-82330089D01*
X119714183Y-82384438D01*
X119782997Y-82452259D01*
X119859596Y-82535516D01*
X119945888Y-82636178D01*
X119963052Y-82656847D01*
X120003833Y-82706409D01*
X120053588Y-82767326D01*
X120110955Y-82837898D01*
X120174569Y-82916424D01*
X120243069Y-83001204D01*
X120315090Y-83090537D01*
X120389270Y-83182722D01*
X120404517Y-83201702D01*
X120464246Y-83276060D01*
X120538653Y-83368848D01*
X120611131Y-83459388D01*
X120680314Y-83545978D01*
X120744841Y-83626918D01*
X120803347Y-83700506D01*
X120854470Y-83765044D01*
X120896847Y-83818829D01*
X120929115Y-83860162D01*
X120949910Y-83887342D01*
X120957869Y-83898668D01*
X120956111Y-83902771D01*
X120943230Y-83923334D01*
X120918885Y-83959561D01*
X120884247Y-84009824D01*
X120840486Y-84072492D01*
X120788775Y-84145936D01*
X120730284Y-84228527D01*
X120666184Y-84318636D01*
X120597646Y-84414631D01*
X120525843Y-84514885D01*
X120451944Y-84617768D01*
X120377121Y-84721650D01*
X120302545Y-84824901D01*
X120229387Y-84925892D01*
X120158819Y-85022994D01*
X120092011Y-85114577D01*
X120030135Y-85199011D01*
X119974361Y-85274667D01*
X119925862Y-85339916D01*
X119885807Y-85393128D01*
X119855369Y-85432673D01*
X119834944Y-85458026D01*
X119788899Y-85512295D01*
X119738612Y-85568775D01*
X119691815Y-85618669D01*
X119600651Y-85712400D01*
X118902445Y-85712400D01*
X118971356Y-85712349D01*
X119069607Y-85712091D01*
X119159030Y-85711637D01*
X119237333Y-85711010D01*
X119302223Y-85710235D01*
X119351411Y-85709335D01*
X119382604Y-85708334D01*
X119393511Y-85707257D01*
X119392322Y-85704037D01*
X119382176Y-85686452D01*
X119365040Y-85660158D01*
X119356540Y-85647691D01*
X119347329Y-85633622D01*
X119339233Y-85619351D01*
X119332185Y-85603479D01*
X119326117Y-85584609D01*
X119320961Y-85561341D01*
X119316651Y-85532278D01*
X119313119Y-85496021D01*
X119310297Y-85451170D01*
X119308118Y-85396328D01*
X119306514Y-85330097D01*
X119305419Y-85251077D01*
X119304765Y-85157871D01*
X119304484Y-85049079D01*
X119304509Y-84923303D01*
X119304772Y-84779145D01*
X119305206Y-84615207D01*
X119305745Y-84430089D01*
X119306279Y-84251232D01*
X119306805Y-84092374D01*
X119307350Y-83953316D01*
X119307945Y-83832665D01*
X119308619Y-83729028D01*
X119309403Y-83641011D01*
X119310326Y-83567223D01*
X119311419Y-83506269D01*
X119312712Y-83456757D01*
X119314235Y-83417293D01*
X119316019Y-83386484D01*
X119318092Y-83362938D01*
X119320486Y-83345260D01*
X119323230Y-83332059D01*
X119326356Y-83321940D01*
X119329892Y-83313511D01*
X119333791Y-83305375D01*
X119353438Y-83268544D01*
X119372225Y-83238391D01*
X119373272Y-83236908D01*
X119387602Y-83214659D01*
X119393511Y-83201702D01*
X119392504Y-83201249D01*
X119375305Y-83199803D01*
X119338656Y-83198480D01*
X119284962Y-83197316D01*
X119216630Y-83196347D01*
X119136064Y-83195611D01*
X119045670Y-83195142D01*
X118947853Y-83194978D01*
X118502195Y-83194978D01*
X118499120Y-84371845D01*
X118496045Y-85548711D01*
X118469407Y-85607622D01*
X118457485Y-85632183D01*
X118440246Y-85662434D01*
X118427074Y-85679560D01*
X118419076Y-85687591D01*
X118411378Y-85702493D01*
X118119942Y-85702493D01*
X118119474Y-85610029D01*
X118119050Y-85494617D01*
X118118706Y-85364160D01*
X118118434Y-85217716D01*
X118118227Y-85054344D01*
X118118076Y-84873101D01*
X118117972Y-84673048D01*
X118117908Y-84453241D01*
X118117876Y-84212739D01*
X118117867Y-83950602D01*
X118117867Y-81759031D01*
X118156249Y-81720649D01*
X118183355Y-81696911D01*
X118210253Y-81685111D01*
X118246560Y-81682267D01*
X118298489Y-81682267D01*
X118298489Y-81770206D01*
X118300427Y-81820102D01*
X118319199Y-81930523D01*
X118356217Y-82031987D01*
X118409369Y-82123152D01*
X118476546Y-82202673D01*
X118555638Y-82269205D01*
X118644534Y-82321406D01*
X118741125Y-82357930D01*
X118843300Y-82377434D01*
X118948950Y-82378573D01*
X119055964Y-82360005D01*
X119162232Y-82320384D01*
X119259219Y-82262516D01*
X119344293Y-82187684D01*
X119413015Y-82099615D01*
X119463918Y-82000616D01*
X119495535Y-81892993D01*
X119506400Y-81779054D01*
X119506400Y-81682267D01*
X121126753Y-81682267D01*
X121337897Y-81682280D01*
X121542020Y-81682330D01*
X121725686Y-81682430D01*
X121889991Y-81682592D01*
X122036029Y-81682829D01*
X122164894Y-81683153D01*
X122277683Y-81683575D01*
X122375488Y-81684109D01*
X122459404Y-81684767D01*
X122530527Y-81685561D01*
X122589950Y-81686504D01*
X122638768Y-81687608D01*
X122678077Y-81688884D01*
X122708969Y-81690347D01*
X122732541Y-81692007D01*
X122749886Y-81693878D01*
X122762099Y-81695972D01*
X122770275Y-81698300D01*
X122775508Y-81700876D01*
X122781504Y-81704445D01*
X122788279Y-81707978D01*
X122794478Y-81711488D01*
X122800126Y-81715918D01*
X122805247Y-81722208D01*
X122809869Y-81731301D01*
X122814015Y-81744139D01*
X122817713Y-81761662D01*
X122820987Y-81784813D01*
X122823863Y-81814534D01*
X122826367Y-81851765D01*
X122828524Y-81897449D01*
X122830360Y-81952527D01*
X122831900Y-82017941D01*
X122833170Y-82094633D01*
X122834195Y-82183544D01*
X122835001Y-82285617D01*
X122835034Y-82291867D01*
X122835614Y-82401792D01*
G36*
X122835614Y-82401792D02*
G01*
X122836059Y-82533011D01*
X122836362Y-82680216D01*
X122836548Y-82844349D01*
X122836642Y-83026352D01*
X122836671Y-83227165D01*
X122836661Y-83447732D01*
X122836636Y-83688992D01*
X122836622Y-83951889D01*
X122836622Y-83994040D01*
X122836646Y-84254668D01*
X122836685Y-84493796D01*
X122836708Y-84712360D01*
X122836687Y-84911295D01*
X122836593Y-85091535D01*
X122836395Y-85254015D01*
X122836063Y-85399670D01*
X122835569Y-85529434D01*
X122834883Y-85644243D01*
X122833976Y-85745030D01*
X122832817Y-85832730D01*
X122831378Y-85908279D01*
X122829629Y-85972611D01*
X122827540Y-86026661D01*
X122825083Y-86071363D01*
X122822227Y-86107652D01*
X122818943Y-86136463D01*
X122815202Y-86158731D01*
X122810974Y-86175390D01*
X122806229Y-86187375D01*
X122800939Y-86195621D01*
X122795073Y-86201062D01*
X122788602Y-86204634D01*
X122781497Y-86207270D01*
X122773728Y-86209906D01*
X122765266Y-86213477D01*
X122760908Y-86215145D01*
X122752395Y-86217111D01*
X122739694Y-86218911D01*
X122721885Y-86220555D01*
X122698049Y-86222047D01*
X122667266Y-86223397D01*
X122628617Y-86224611D01*
X122581182Y-86225697D01*
X122524043Y-86226661D01*
X122456279Y-86227511D01*
X122376971Y-86228253D01*
X122285199Y-86228897D01*
X122180044Y-86229447D01*
X122060587Y-86229913D01*
X121925908Y-86230300D01*
X121775088Y-86230616D01*
X121607206Y-86230869D01*
X121421345Y-86231066D01*
X121216583Y-86231213D01*
X120992002Y-86231318D01*
X120746682Y-86231389D01*
X120479704Y-86231432D01*
X120441321Y-86231437D01*
X120175922Y-86231480D01*
X119932050Y-86231525D01*
X119708783Y-86231548D01*
X119505196Y-86231524D01*
X119320367Y-86231430D01*
X119153373Y-86231243D01*
X119003290Y-86230939D01*
X118869196Y-86230494D01*
X118750166Y-86229885D01*
X118645279Y-86229089D01*
X118553610Y-86228080D01*
X118474237Y-86226837D01*
X118406237Y-86225335D01*
X118348686Y-86223551D01*
X118300662Y-86221461D01*
X118261240Y-86219042D01*
X118229499Y-86216270D01*
X118204514Y-86213121D01*
X118185364Y-86209572D01*
X118171123Y-86205598D01*
X118160871Y-86201178D01*
X118153682Y-86196286D01*
X118148635Y-86190900D01*
X118144805Y-86184996D01*
X118141271Y-86178549D01*
X118137108Y-86171537D01*
X118136025Y-86169687D01*
X118133813Y-86164180D01*
X118131786Y-86155868D01*
X118129938Y-86143809D01*
X118128261Y-86127063D01*
X118126745Y-86104687D01*
X118125383Y-86075740D01*
X118124167Y-86039280D01*
X118123089Y-85994367D01*
X118122140Y-85940057D01*
X118121312Y-85875410D01*
X118120597Y-85799484D01*
X118119987Y-85711338D01*
X118119942Y-85702493D01*
X118411378Y-85702493D01*
X118415260Y-85703765D01*
X118438520Y-85705791D01*
X118480874Y-85707626D01*
X118540132Y-85709227D01*
X118614107Y-85710549D01*
X118700610Y-85711548D01*
X118797452Y-85712180D01*
X118902445Y-85712400D01*
X119600651Y-85712400D01*
X120755090Y-85712400D01*
X120754456Y-85636200D01*
X120755574Y-85594160D01*
X120761304Y-85558334D01*
X120773890Y-85520772D01*
X120795568Y-85472577D01*
X120798789Y-85465897D01*
X120824188Y-85416359D01*
X120850996Y-85368369D01*
X120873917Y-85331466D01*
X120878485Y-85324834D01*
X120900516Y-85293593D01*
X120932693Y-85248654D01*
X120973457Y-85192147D01*
X121021245Y-85126204D01*
X121074498Y-85052957D01*
X121131655Y-84974536D01*
X121191155Y-84893072D01*
X121251437Y-84810698D01*
X121310940Y-84729544D01*
X121368105Y-84651742D01*
X121421370Y-84579423D01*
X121469174Y-84514718D01*
X121509957Y-84459759D01*
X121542158Y-84416676D01*
X121564216Y-84387602D01*
X121574571Y-84374667D01*
X121579044Y-84370351D01*
X121583236Y-84368312D01*
X121586643Y-84370926D01*
X121589325Y-84379986D01*
X121591341Y-84397285D01*
X121592748Y-84424614D01*
X121593605Y-84463765D01*
X121593970Y-84516533D01*
X121593903Y-84584707D01*
X121593460Y-84670082D01*
X121592702Y-84774449D01*
X121591685Y-84899600D01*
X121591308Y-84944300D01*
X121590169Y-85065395D01*
X121588972Y-85166688D01*
X121587636Y-85250262D01*
X121586077Y-85318204D01*
X121584215Y-85372599D01*
X121581966Y-85415532D01*
X121579248Y-85449089D01*
X121575979Y-85475355D01*
X121572078Y-85496416D01*
X121567461Y-85514357D01*
X121559192Y-85540770D01*
X121535583Y-85602772D01*
X121509685Y-85655573D01*
X121484535Y-85692645D01*
X121483339Y-85694075D01*
X121481168Y-85698424D01*
X121483328Y-85702026D01*
X121491644Y-85704951D01*
X121507940Y-85707269D01*
X121534041Y-85709051D01*
X121571771Y-85710367D01*
X121622956Y-85711286D01*
X121689420Y-85711878D01*
X121772987Y-85712215D01*
X121875483Y-85712365D01*
X121998732Y-85712400D01*
X122530296Y-85712400D01*
X122491523Y-85654783D01*
X122485432Y-85645893D01*
X122474976Y-85631069D01*
X122465579Y-85617422D01*
X122457183Y-85603765D01*
X122449733Y-85588911D01*
X122443173Y-85571670D01*
X122437446Y-85550855D01*
X122432495Y-85525280D01*
X122428266Y-85493755D01*
X122424701Y-85455093D01*
X122421744Y-85408107D01*
X122419340Y-85351608D01*
X122417431Y-85284409D01*
X122415962Y-85205322D01*
X122414876Y-85113160D01*
X122414118Y-85006734D01*
X122413630Y-84884857D01*
X122413358Y-84746341D01*
X122413243Y-84589999D01*
X122413231Y-84414642D01*
X122413265Y-84219082D01*
X122413289Y-84002133D01*
X122413280Y-83879513D01*
X122413243Y-83674447D01*
X122413227Y-83490116D01*
X122413288Y-83325334D01*
X122413484Y-83178916D01*
X122413870Y-83049674D01*
X122414505Y-82936422D01*
X122415444Y-82837975D01*
X122416745Y-82753144D01*
X122418464Y-82680744D01*
X122420659Y-82619589D01*
X122423385Y-82568492D01*
X122426701Y-82526267D01*
X122430662Y-82491727D01*
X122435325Y-82463686D01*
X122440747Y-82440958D01*
X122446986Y-82422356D01*
X122454097Y-82406693D01*
X122462138Y-82392784D01*
X122471166Y-82379441D01*
X122481236Y-82365479D01*
X122492407Y-82349711D01*
X122532197Y-82291867D01*
X121472314Y-82291867D01*
X121510311Y-82354966D01*
X121524993Y-82380005D01*
X121539531Y-82407586D01*
X121551627Y-82435700D01*
X121561532Y-82466551D01*
X121569494Y-82502344D01*
X121575761Y-82545283D01*
X121580582Y-82597574D01*
X121584206Y-82661419D01*
X121586881Y-82739025D01*
X121588857Y-82832594D01*
X121590382Y-82944333D01*
X121591704Y-83076445D01*
X121592613Y-83196434D01*
X121593020Y-83313063D01*
X121592767Y-83408531D01*
X121591857Y-83482556D01*
X121590293Y-83534855D01*
X121588079Y-83565149D01*
X121585220Y-83573156D01*
X121582161Y-83569858D01*
X121564006Y-83548408D01*
X121534275Y-83511889D01*
X121494639Y-83462442D01*
X121446771Y-83402207D01*
X121392343Y-83333327D01*
X121333027Y-83257943D01*
X121270495Y-83178196D01*
X121206421Y-83096228D01*
X121142475Y-83014180D01*
X121080331Y-82934194D01*
X121021661Y-82858411D01*
X120968137Y-82788973D01*
X120921430Y-82728021D01*
X120883214Y-82677696D01*
X120855161Y-82640140D01*
X120838943Y-82617495D01*
X120793635Y-82545212D01*
X120753661Y-82465463D01*
X120732130Y-82397188D01*
X120728827Y-82339844D01*
X120734116Y-82291867D01*
X119602356Y-82292117D01*
X119641867Y-82322722D01*
X119651248Y-82330089D01*
X119714183Y-82384438D01*
X119782997Y-82452259D01*
X119859596Y-82535516D01*
X119945888Y-82636178D01*
X119963052Y-82656847D01*
X120003833Y-82706409D01*
X120053588Y-82767326D01*
X120110955Y-82837898D01*
X120174569Y-82916424D01*
X120243069Y-83001204D01*
X120315090Y-83090537D01*
X120389270Y-83182722D01*
X120404517Y-83201702D01*
X120464246Y-83276060D01*
X120538653Y-83368848D01*
X120611131Y-83459388D01*
X120680314Y-83545978D01*
X120744841Y-83626918D01*
X120803347Y-83700506D01*
X120854470Y-83765044D01*
X120896847Y-83818829D01*
X120929115Y-83860162D01*
X120949910Y-83887342D01*
X120957869Y-83898668D01*
X120956111Y-83902771D01*
X120943230Y-83923334D01*
X120918885Y-83959561D01*
X120884247Y-84009824D01*
X120840486Y-84072492D01*
X120788775Y-84145936D01*
X120730284Y-84228527D01*
X120666184Y-84318636D01*
X120597646Y-84414631D01*
X120525843Y-84514885D01*
X120451944Y-84617768D01*
X120377121Y-84721650D01*
X120302545Y-84824901D01*
X120229387Y-84925892D01*
X120158819Y-85022994D01*
X120092011Y-85114577D01*
X120030135Y-85199011D01*
X119974361Y-85274667D01*
X119925862Y-85339916D01*
X119885807Y-85393128D01*
X119855369Y-85432673D01*
X119834944Y-85458026D01*
X119788899Y-85512295D01*
X119738612Y-85568775D01*
X119691815Y-85618669D01*
X119600651Y-85712400D01*
X118902445Y-85712400D01*
X118971356Y-85712349D01*
X119069607Y-85712091D01*
X119159030Y-85711637D01*
X119237333Y-85711010D01*
X119302223Y-85710235D01*
X119351411Y-85709335D01*
X119382604Y-85708334D01*
X119393511Y-85707257D01*
X119392322Y-85704037D01*
X119382176Y-85686452D01*
X119365040Y-85660158D01*
X119356540Y-85647691D01*
X119347329Y-85633622D01*
X119339233Y-85619351D01*
X119332185Y-85603479D01*
X119326117Y-85584609D01*
X119320961Y-85561341D01*
X119316651Y-85532278D01*
X119313119Y-85496021D01*
X119310297Y-85451170D01*
X119308118Y-85396328D01*
X119306514Y-85330097D01*
X119305419Y-85251077D01*
X119304765Y-85157871D01*
X119304484Y-85049079D01*
X119304509Y-84923303D01*
X119304772Y-84779145D01*
X119305206Y-84615207D01*
X119305745Y-84430089D01*
X119306279Y-84251232D01*
X119306805Y-84092374D01*
X119307350Y-83953316D01*
X119307945Y-83832665D01*
X119308619Y-83729028D01*
X119309403Y-83641011D01*
X119310326Y-83567223D01*
X119311419Y-83506269D01*
X119312712Y-83456757D01*
X119314235Y-83417293D01*
X119316019Y-83386484D01*
X119318092Y-83362938D01*
X119320486Y-83345260D01*
X119323230Y-83332059D01*
X119326356Y-83321940D01*
X119329892Y-83313511D01*
X119333791Y-83305375D01*
X119353438Y-83268544D01*
X119372225Y-83238391D01*
X119373272Y-83236908D01*
X119387602Y-83214659D01*
X119393511Y-83201702D01*
X119392504Y-83201249D01*
X119375305Y-83199803D01*
X119338656Y-83198480D01*
X119284962Y-83197316D01*
X119216630Y-83196347D01*
X119136064Y-83195611D01*
X119045670Y-83195142D01*
X118947853Y-83194978D01*
X118502195Y-83194978D01*
X118499120Y-84371845D01*
X118496045Y-85548711D01*
X118469407Y-85607622D01*
X118457485Y-85632183D01*
X118440246Y-85662434D01*
X118427074Y-85679560D01*
X118419076Y-85687591D01*
X118411378Y-85702493D01*
X118119942Y-85702493D01*
X118119474Y-85610029D01*
X118119050Y-85494617D01*
X118118706Y-85364160D01*
X118118434Y-85217716D01*
X118118227Y-85054344D01*
X118118076Y-84873101D01*
X118117972Y-84673048D01*
X118117908Y-84453241D01*
X118117876Y-84212739D01*
X118117867Y-83950602D01*
X118117867Y-81759031D01*
X118156249Y-81720649D01*
X118183355Y-81696911D01*
X118210253Y-81685111D01*
X118246560Y-81682267D01*
X118298489Y-81682267D01*
X118298489Y-81770206D01*
X118300427Y-81820102D01*
X118319199Y-81930523D01*
X118356217Y-82031987D01*
X118409369Y-82123152D01*
X118476546Y-82202673D01*
X118555638Y-82269205D01*
X118644534Y-82321406D01*
X118741125Y-82357930D01*
X118843300Y-82377434D01*
X118948950Y-82378573D01*
X119055964Y-82360005D01*
X119162232Y-82320384D01*
X119259219Y-82262516D01*
X119344293Y-82187684D01*
X119413015Y-82099615D01*
X119463918Y-82000616D01*
X119495535Y-81892993D01*
X119506400Y-81779054D01*
X119506400Y-81682267D01*
X121126753Y-81682267D01*
X121337897Y-81682280D01*
X121542020Y-81682330D01*
X121725686Y-81682430D01*
X121889991Y-81682592D01*
X122036029Y-81682829D01*
X122164894Y-81683153D01*
X122277683Y-81683575D01*
X122375488Y-81684109D01*
X122459404Y-81684767D01*
X122530527Y-81685561D01*
X122589950Y-81686504D01*
X122638768Y-81687608D01*
X122678077Y-81688884D01*
X122708969Y-81690347D01*
X122732541Y-81692007D01*
X122749886Y-81693878D01*
X122762099Y-81695972D01*
X122770275Y-81698300D01*
X122775508Y-81700876D01*
X122781504Y-81704445D01*
X122788279Y-81707978D01*
X122794478Y-81711488D01*
X122800126Y-81715918D01*
X122805247Y-81722208D01*
X122809869Y-81731301D01*
X122814015Y-81744139D01*
X122817713Y-81761662D01*
X122820987Y-81784813D01*
X122823863Y-81814534D01*
X122826367Y-81851765D01*
X122828524Y-81897449D01*
X122830360Y-81952527D01*
X122831900Y-82017941D01*
X122833170Y-82094633D01*
X122834195Y-82183544D01*
X122835001Y-82285617D01*
X122835034Y-82291867D01*
X122835614Y-82401792D01*
G37*
%TD*%
M02*
